<svg width="512" height="512" viewBox="0 0 512 512" fill="none" xmlns="http://www.w3.org/2000/svg">
<path fill-rule="evenodd" clip-rule="evenodd" d="M256.081 253.995C305.09 253.995 350.4 256.842 387.173 261.666C399.371 263.267 410.614 270.62 413.86 282.487C415.359 287.968 416.161 293.492 416.161 299.016C416.16 361.547 339.872 424.078 256.081 424.078C172.289 424.078 96.0012 368.086 96.0007 299.016C96.0008 293.974 96.547 289 97.5827 284.114C100.262 271.474 111.911 263.389 124.721 261.703C161.541 256.858 206.953 253.995 256.081 253.995ZM209.948 338.891C204.575 334.56 196.707 335.399 192.37 340.77C188.031 346.144 188.869 354.018 194.243 358.358L202.1 348.627C194.243 358.357 194.247 358.361 194.251 358.364L194.257 358.37C194.262 358.373 194.269 358.377 194.274 358.381C194.286 358.391 194.299 358.403 194.313 358.414C194.342 358.438 194.377 358.465 194.417 358.496C194.497 358.56 194.601 358.639 194.725 358.735C194.974 358.926 195.31 359.182 195.729 359.489C196.568 360.103 197.747 360.933 199.241 361.905C202.225 363.847 206.503 366.379 211.876 368.897C222.577 373.912 237.954 379.022 256.284 379.014C274.364 379.006 289.576 374.482 300.223 370.01C305.565 367.767 309.823 365.509 312.801 363.774C314.293 362.905 315.47 362.163 316.309 361.614C316.729 361.339 317.065 361.111 317.313 360.94C317.438 360.854 317.541 360.782 317.622 360.725C317.662 360.697 317.696 360.672 317.725 360.651C317.74 360.64 317.753 360.63 317.764 360.621C317.77 360.617 317.777 360.613 317.782 360.61L317.79 360.604C317.787 360.593 317.585 360.307 310.956 351.137L317.796 360.6C323.393 356.554 324.65 348.735 320.604 343.137C316.559 337.542 308.746 336.284 303.149 340.325L303.112 340.35C303.02 340.413 302.847 340.529 302.598 340.692C302.1 341.019 301.295 341.529 300.208 342.162C298.028 343.433 294.742 345.184 290.538 346.95C282.095 350.496 270.211 353.994 256.272 354C242.584 354.006 230.871 350.177 222.489 346.248C218.32 344.295 215.055 342.353 212.884 340.94C211.801 340.236 210.998 339.669 210.501 339.305C210.253 339.123 210.081 338.991 209.989 338.92L209.946 338.889L209.948 338.891ZM187.092 271.088C176.041 271.088 167.083 280.047 167.083 291.098C167.083 302.149 176.041 311.108 187.092 311.108C198.144 311.108 207.102 302.149 207.102 291.098C207.102 280.047 198.144 271.088 187.092 271.088ZM327.163 271.088C316.112 271.088 307.153 280.047 307.153 291.098C307.153 302.149 316.112 311.108 327.163 311.108C338.214 311.108 347.173 302.149 347.173 291.098C347.172 280.047 338.214 271.088 327.163 271.088Z" fill="#FFA103"/>
<path d="M415.476 227.246C432.27 229.489 449.754 232.039 468.123 234.899C479.967 243.663 490.757 251.647 499.366 258.018C512.115 267.451 517.512 283.183 504.563 292.34C491.911 301.287 468.635 311.63 425.814 319.412C427.29 312.71 428.355 305.903 428.995 299.025C460.698 292.11 479.74 283.25 479.74 273.589C479.74 265.22 465.451 257.453 441.021 251.029L415.476 227.246ZM75.6631 250.402C49.7544 256.944 34.517 264.947 34.5166 273.589C34.5168 282.987 52.537 291.627 82.7041 298.456C83.3245 305.379 84.3757 312.233 85.8428 318.98C44.5113 311.25 21.8543 301.122 9.43456 292.34C-3.51476 283.183 1.88757 267.448 14.6367 258.015L50.5166 231.465C68.9927 228.831 86.5753 226.514 103.471 224.512L75.6631 250.402ZM328.428 217.984C355.102 219.963 382.81 222.929 412.68 226.875L439.928 250.744C414.763 244.249 379.161 239.16 337.489 236.259L328.428 217.984ZM178.837 236.117C137.602 238.903 102.184 243.822 76.7539 250.13L106.391 224.168C135.384 220.778 162.37 218.326 188.408 216.815L178.837 236.117ZM258.665 215.035C280.956 215.23 303.267 216.162 326.332 217.832L336.438 236.187C312.119 234.519 285.754 233.595 258.207 233.571L258.665 215.035ZM190.527 216.694C213.263 215.418 235.296 214.861 257.334 215.024L257.792 233.57C257.571 233.57 257.349 233.569 257.128 233.569C229.965 233.569 203.939 234.446 179.872 236.047L190.527 216.694ZM355.811 171.739C365.513 172.337 375.392 173.011 385.496 173.763C386.445 174.465 387.385 175.16 388.315 175.849C410.196 192.039 437.312 212.102 461.211 229.785C443.531 227.078 426.663 224.667 410.427 222.546L356.623 172.451L355.811 171.739ZM159.847 172.024L108.418 219.906C92.0616 221.796 75.0741 223.982 57.2656 226.472L125.683 175.849L130.522 172.267C141.106 171.598 151.436 171.014 161.57 170.514L159.847 172.024ZM304.26 169.245C319.087 169.752 334.125 170.46 349.587 171.366L353.941 175.42L407.271 222.136C378.702 218.452 352.069 215.68 326.364 213.824L304.26 169.245ZM190.452 212.692C165.362 214.098 139.421 216.378 111.685 219.53L162.527 174.992L167.65 170.222C182.883 169.515 197.692 169.002 212.277 168.681L190.452 212.692ZM259.818 168.32C273.028 168.415 286.235 168.671 299.597 169.092L300.533 170.98L324.033 213.658C301.821 212.099 280.283 211.225 258.764 211.035L259.818 168.32ZM216.911 168.585C230.117 168.331 243.157 168.236 256.18 168.299L257.234 211.023C235.964 210.868 214.697 211.382 192.803 212.563L215.937 170.552L216.911 168.585ZM303.172 125.627C309.337 125.913 315.541 126.247 321.799 126.631C340.86 140.735 361.43 155.956 379.48 169.312C369.767 168.614 360.256 167.991 350.9 167.438L303.172 125.627ZM166.404 166.279C156.607 166.739 146.634 167.276 136.432 167.895L193.408 125.736C200.193 125.411 206.918 125.143 213.601 124.934L166.404 166.279ZM279.779 124.772C286.596 124.953 293.437 125.195 300.324 125.498L345.004 167.099C330.376 166.276 316.11 165.63 302.023 165.168L279.779 124.772ZM214.504 164.633C200.642 164.919 186.588 165.379 172.17 166.014L216.381 124.851C223.165 124.654 229.91 124.518 236.635 124.441L214.504 164.633ZM259.096 124.407C265.253 124.459 271.413 124.561 277.591 124.714L297.582 165.028C284.941 164.647 272.43 164.411 259.917 164.321L260 160.995L259.096 124.407ZM238.812 124.419C244.851 124.362 250.877 124.351 256.903 124.391L256 160.995L256.081 164.299C243.749 164.24 231.402 164.323 218.913 164.548L238.812 124.419ZM258.447 86.0313C264.22 86.3078 269.929 88.2516 274.819 91.8701C285.464 99.7464 299.991 110.495 315.914 122.277C310.022 121.944 304.174 121.655 298.356 121.409L258.891 86.8369L258.447 86.0313ZM239.146 91.8946C244.68 87.7996 251.262 85.8353 257.799 86.0069L257.576 86.4112L218.326 120.794C211.981 120.967 205.603 121.191 199.175 121.469L239.146 91.8946ZM295.82 121.306C289.701 121.06 283.614 120.862 277.545 120.713L258.987 87.0117L295.82 121.306ZM238.852 120.416C232.856 120.473 226.846 120.577 220.809 120.729L257.48 86.586L238.852 120.416ZM258.816 86.8526L275.583 120.665C270.044 120.538 264.519 120.452 258.996 120.406L258.152 86.2354L258.816 86.8526ZM257.002 120.392C251.605 120.356 246.21 120.359 240.804 120.4L257.65 86.4268L257.845 86.2461L257.002 120.392ZM258.147 86.0166C258.234 86.0199 258.321 86.0253 258.407 86.0293L258.745 86.709L258.151 86.1895L258.147 86.0166ZM257.847 86.1748L257.722 86.2832L257.851 86.0254L257.847 86.1748Z" fill="#FFA103"/>
</svg>
