<svg width="2002" height="512" viewBox="0 0 2002 512" fill="none" xmlns="http://www.w3.org/2000/svg">
<path d="M101.777 392L8.41461 99.4922H67.3169L144.651 352.732L127.822 344.718H171.097L153.867 352.732L225.191 99.4922H282.09L195.539 392H101.777ZM327.725 392V174.422H383.422V392H327.725ZM297.272 216.095V174.422H383.422V216.095H297.272ZM348.161 148.377C337.208 148.377 329.061 145.572 323.718 139.962C318.643 134.086 316.105 126.873 316.105 118.325C316.105 109.242 318.643 101.896 323.718 96.2866C329.061 90.6769 337.208 87.872 348.161 87.872C359.113 87.872 367.127 90.6769 372.202 96.2866C377.278 101.896 379.816 109.242 379.816 118.325C379.816 126.873 377.278 134.086 372.202 139.962C367.127 145.572 359.113 148.377 348.161 148.377ZM447.611 392V174.422H491.688V267.784H487.681C487.681 245.613 490.619 227.181 496.496 212.488C502.373 197.529 511.055 186.31 522.542 178.83C534.295 171.35 548.854 167.61 566.217 167.61H568.622C594.533 167.61 614.167 176.025 627.524 192.854C640.88 209.416 647.559 234.259 647.559 267.384V392H591.862V262.575C591.862 249.219 587.989 238.4 580.242 230.119C572.762 221.838 562.344 217.697 548.987 217.697C535.364 217.697 524.278 221.971 515.73 230.52C507.449 238.801 503.308 250.02 503.308 264.178V392H447.611ZM839.266 392V327.488H830.05V255.763C830.05 243.208 826.978 233.859 820.834 227.715C814.69 221.571 805.207 218.499 792.385 218.499C785.707 218.499 777.693 218.632 768.343 218.899C758.994 219.167 749.511 219.567 739.894 220.102C730.544 220.369 722.13 220.769 714.65 221.304V174.022C720.794 173.487 727.739 172.953 735.486 172.419C743.233 171.885 751.113 171.617 759.127 171.617C767.408 171.35 775.155 171.217 782.368 171.217C804.807 171.217 823.372 174.155 838.064 180.032C853.024 185.909 864.243 195.125 871.723 207.68C879.47 220.235 883.343 236.664 883.343 256.966V392H839.266ZM769.145 397.61C753.384 397.61 739.493 394.805 727.472 389.195C715.719 383.585 706.503 375.571 699.824 365.153C693.413 354.735 690.208 342.18 690.208 327.488C690.208 311.46 694.081 298.371 701.828 288.22C709.842 278.069 720.928 270.456 735.086 265.38C749.511 260.305 766.34 257.767 785.573 257.767H836.061V291.025H784.772C771.95 291.025 762.066 294.23 755.12 300.641C748.442 306.785 745.103 314.799 745.103 324.683C745.103 334.567 748.442 342.581 755.12 348.725C762.066 354.869 771.95 357.941 784.772 357.941C792.519 357.941 799.598 356.605 806.009 353.934C812.687 350.995 818.163 346.187 822.437 339.509C826.978 332.563 829.516 323.214 830.05 311.46L843.674 327.087C842.338 342.314 838.599 355.136 832.455 365.554C826.578 375.972 818.297 383.986 807.611 389.596C797.193 394.938 784.371 397.61 769.145 397.61ZM1021.94 398.812C992.021 398.812 968.514 392.534 951.417 379.979C934.588 367.157 925.773 349.526 924.971 327.087H975.058C975.86 334.567 980 341.379 987.48 347.523C994.96 353.667 1006.71 356.739 1022.74 356.739C1036.1 356.739 1046.65 354.335 1054.4 349.526C1062.41 344.718 1066.42 338.173 1066.42 329.892C1066.42 322.68 1063.35 316.936 1057.2 312.662C1051.32 308.388 1041.17 305.583 1026.75 304.248L1007.51 302.244C983.206 299.573 964.507 292.627 951.417 281.408C938.328 270.189 931.783 255.229 931.783 236.53C931.783 221.571 935.523 209.016 943.003 198.865C950.482 188.714 960.767 181.101 973.856 176.025C987.213 170.682 1002.44 168.011 1019.54 168.011C1046.25 168.011 1067.89 173.888 1084.45 185.642C1101.01 197.395 1109.69 214.625 1110.49 237.331H1060.41C1059.87 229.852 1056.13 223.441 1049.19 218.098C1042.24 212.755 1032.22 210.084 1019.13 210.084C1007.38 210.084 998.299 212.355 991.888 216.896C985.476 221.437 982.271 227.314 982.271 234.527C982.271 241.472 984.809 246.815 989.884 250.554C995.227 254.294 1003.77 256.832 1015.53 258.168L1034.76 260.171C1060.41 262.842 1080.44 269.921 1094.87 281.408C1109.56 292.895 1116.9 308.388 1116.9 327.889C1116.9 342.314 1112.9 354.869 1104.88 365.554C1097.14 375.972 1086.18 384.12 1072.03 389.997C1057.87 395.873 1041.17 398.812 1021.94 398.812ZM1235.49 392L1276.76 181.635H1340.87L1388.55 392H1344.48L1295.99 182.837H1319.23L1276.36 392H1235.49ZM1219.06 392L1218.66 346.321H1263.14V392H1219.06ZM1196.62 392L1137.32 174.422H1191.41L1247.91 392H1196.62ZM1358.5 392V346.321H1402.98L1402.58 392H1358.5ZM1376.13 392L1426.22 174.422H1476.71L1424.22 392H1376.13ZM1649.66 392V327.488H1640.44V255.763C1640.44 243.208 1637.37 233.859 1631.23 227.715C1625.08 221.571 1615.6 218.499 1602.78 218.499C1596.1 218.499 1588.08 218.632 1578.73 218.899C1569.38 219.167 1559.9 219.567 1550.29 220.102C1540.94 220.369 1532.52 220.769 1525.04 221.304V174.022C1531.19 173.487 1538.13 172.953 1545.88 172.419C1553.62 171.885 1561.5 171.617 1569.52 171.617C1577.8 171.35 1585.55 171.217 1592.76 171.217C1615.2 171.217 1633.76 174.155 1648.46 180.032C1663.41 185.909 1674.63 195.125 1682.11 207.68C1689.86 220.235 1693.73 236.664 1693.73 256.966V392H1649.66ZM1579.54 397.61C1563.78 397.61 1549.88 394.805 1537.86 389.195C1526.11 383.585 1516.89 375.571 1510.22 365.153C1503.8 354.735 1500.6 342.18 1500.6 327.488C1500.6 311.46 1504.47 298.371 1512.22 288.22C1520.23 278.069 1531.32 270.456 1545.48 265.38C1559.9 260.305 1576.73 257.767 1595.96 257.767H1646.45V291.025H1595.16C1582.34 291.025 1572.46 294.23 1565.51 300.641C1558.83 306.785 1555.49 314.799 1555.49 324.683C1555.49 334.567 1558.83 342.581 1565.51 348.725C1572.46 354.869 1582.34 357.941 1595.16 357.941C1602.91 357.941 1609.99 356.605 1616.4 353.934C1623.08 350.995 1628.55 346.187 1632.83 339.509C1637.37 332.563 1639.91 323.214 1640.44 311.46L1654.07 327.087C1652.73 342.314 1648.99 355.136 1642.85 365.554C1636.97 375.972 1628.69 383.986 1618 389.596C1607.58 394.938 1594.76 397.61 1579.54 397.61ZM1753.39 472.139V174.422H1797.47V268.185L1790.66 267.784C1791.73 245.613 1796.27 227.047 1804.28 212.088C1812.56 197.128 1823.52 186.042 1837.14 178.83C1850.76 171.35 1865.99 167.61 1882.82 167.61C1898.31 167.61 1912.2 170.415 1924.49 176.025C1937.05 181.635 1947.73 189.515 1956.55 199.666C1965.63 209.817 1972.57 221.704 1977.38 235.328C1982.19 248.685 1984.6 263.11 1984.6 278.603V287.018C1984.6 302.778 1982.19 317.471 1977.38 331.094C1972.84 344.451 1966.03 356.338 1956.95 366.756C1948.13 376.907 1937.45 384.921 1924.89 390.798C1912.34 396.408 1898.31 399.213 1882.82 399.213C1866.52 399.213 1851.56 395.873 1837.94 389.195C1824.58 382.25 1813.77 371.698 1805.48 357.54C1797.2 343.115 1792.53 324.55 1791.46 301.843L1809.09 328.69V472.139H1753.39ZM1868.79 352.331C1880.82 352.331 1891.23 349.393 1900.05 343.516C1909.13 337.639 1916.21 329.491 1921.29 319.073C1926.36 308.388 1928.9 296.367 1928.9 283.011C1928.9 269.12 1926.36 257.099 1921.29 246.948C1916.21 236.797 1909.13 228.917 1900.05 223.307C1891.23 217.43 1880.82 214.492 1868.79 214.492C1857.84 214.492 1847.69 216.896 1838.34 221.704C1829.26 226.513 1821.78 233.592 1815.9 242.941C1810.29 252.291 1807.49 263.51 1807.49 276.6V292.627C1807.49 305.183 1810.43 315.868 1816.3 324.683C1822.18 333.498 1829.79 340.31 1839.14 345.119C1848.49 349.927 1858.38 352.331 1868.79 352.331Z" fill="#FFA103"/>
</svg>
