<svg width="973" height="512" viewBox="0 0 973 512" fill="none" xmlns="http://www.w3.org/2000/svg">
<rect width="973" height="512" fill="#8B2121"/>
<g clip-path="url(#clip0_2295_4800)">
<path fill-rule="evenodd" clip-rule="evenodd" d="M236.27 255.499C248.522 255.499 259.85 256.211 269.043 257.417C272.093 257.817 274.903 259.655 275.715 262.622C276.09 263.992 276.29 265.373 276.29 266.754C276.29 282.387 257.218 298.02 236.27 298.02C215.322 298.02 196.25 284.021 196.25 266.754C196.25 265.493 196.387 264.25 196.646 263.028C197.316 259.869 200.228 257.847 203.43 257.426C212.635 256.214 223.988 255.499 236.27 255.499ZM224.737 276.723C223.394 275.64 221.427 275.85 220.342 277.193C219.258 278.536 219.467 280.505 220.811 281.589L222.775 279.157C220.811 281.589 220.812 281.59 220.813 281.591L220.814 281.592C220.815 281.593 220.817 281.594 220.818 281.595C220.821 281.598 220.825 281.601 220.828 281.604C220.835 281.609 220.844 281.616 220.854 281.624C220.874 281.64 220.9 281.66 220.931 281.684C220.993 281.732 221.077 281.795 221.182 281.872C221.392 282.026 221.687 282.233 222.06 282.476C222.806 282.962 223.876 283.595 225.219 284.224C227.894 285.478 231.739 286.756 236.321 286.754C240.841 286.751 244.644 285.62 247.306 284.503C248.641 283.942 249.706 283.377 250.45 282.943C250.823 282.726 251.118 282.541 251.327 282.403C251.432 282.335 251.516 282.278 251.578 282.235C251.609 282.214 251.635 282.196 251.655 282.181C251.665 282.174 251.674 282.168 251.681 282.163C251.685 282.16 251.688 282.158 251.691 282.155C251.693 282.154 251.694 282.153 251.695 282.152L251.697 282.151C251.697 282.148 251.646 282.077 249.989 279.784L251.699 282.15C253.098 281.138 253.413 279.184 252.401 277.784C251.39 276.386 249.436 276.071 248.037 277.081L248.028 277.088C248.005 277.103 247.962 277.132 247.9 277.173C247.775 277.255 247.574 277.382 247.302 277.541C246.757 277.858 245.935 278.296 244.884 278.737C242.774 279.624 239.803 280.499 236.318 280.5C232.896 280.502 229.968 279.544 227.872 278.562C226.83 278.074 226.014 277.588 225.471 277.235C225.2 277.059 224.999 276.917 224.875 276.826C224.813 276.781 224.77 276.748 224.747 276.73L224.736 276.722L224.737 276.723ZM219.023 259.772C216.26 259.772 214.021 262.012 214.021 264.775C214.021 267.537 216.26 269.777 219.023 269.777C221.786 269.777 224.026 267.537 224.026 264.775C224.025 262.012 221.786 259.772 219.023 259.772ZM254.041 259.772C251.278 259.772 249.038 262.012 249.038 264.775C249.038 267.537 251.278 269.777 254.041 269.777C256.803 269.777 259.043 267.537 259.043 264.775C259.043 262.012 256.803 259.772 254.041 259.772Z" fill="#FFA103"/>
<path d="M276.122 248.815C280.32 249.375 284.689 250.011 289.28 250.726C292.241 252.917 294.939 254.913 297.092 256.505C300.279 258.864 301.628 262.796 298.391 265.085C295.227 267.322 289.407 269.907 278.7 271.853C279.069 270.177 279.336 268.476 279.496 266.757C287.423 265.028 292.185 262.813 292.185 260.398C292.185 258.306 288.613 256.364 282.506 254.758L276.122 248.815ZM191.166 254.601C184.689 256.236 180.879 258.237 180.879 260.398C180.879 262.747 185.386 264.907 192.929 266.614C193.084 268.345 193.347 270.058 193.714 271.745C183.379 269.813 177.714 267.281 174.608 265.085C171.371 262.796 172.722 258.862 175.909 256.504L184.877 249.868C189.495 249.21 193.89 248.633 198.113 248.132L191.166 254.601ZM254.357 246.497C261.027 246.992 267.954 247.734 275.423 248.721L282.233 254.688C275.942 253.064 267.041 251.792 256.623 251.067L254.357 246.497ZM216.958 251.03C206.649 251.726 197.794 252.956 191.436 254.533L198.845 248.044C206.094 247.197 212.84 246.583 219.351 246.205L216.958 251.03ZM236.916 245.759C242.489 245.808 248.067 246.041 253.833 246.458L256.36 251.048C250.28 250.631 243.689 250.4 236.802 250.394L236.916 245.759ZM236.583 245.757L236.697 250.393C236.642 250.393 236.587 250.393 236.532 250.393C229.741 250.393 223.234 250.612 217.217 251.012L219.88 246.175C225.564 245.856 231.073 245.716 236.583 245.757ZM261.204 234.936C263.63 235.085 266.099 235.254 268.625 235.442C268.862 235.617 269.097 235.791 269.329 235.963C274.8 240.011 281.58 245.028 287.556 249.449C283.137 248.773 278.92 248.172 274.862 247.642L261.405 235.113L261.204 234.936ZM212.212 235.006L199.351 246.98C195.262 247.452 191.016 247.997 186.564 248.619L203.671 235.963L204.881 235.068C207.526 234.9 210.108 234.754 212.641 234.629L212.212 235.006ZM248.315 234.312C252.023 234.439 255.783 234.616 259.648 234.843L260.735 235.855L274.072 247.537C266.929 246.616 260.27 245.922 253.843 245.458L248.315 234.312ZM219.861 245.175C213.589 245.526 207.103 246.096 200.169 246.884L212.882 235.748L214.16 234.557C217.968 234.38 221.671 234.251 225.317 234.171L219.861 245.175ZM237.204 234.081C240.507 234.105 243.809 234.17 247.149 234.275L247.383 234.744L253.259 245.416C247.705 245.026 242.32 244.808 236.94 244.76L237.204 234.081ZM236.295 234.075L236.559 244.757C231.24 244.718 225.923 244.848 220.449 245.143L226.234 234.638L226.477 234.148C229.778 234.084 233.039 234.06 236.295 234.075ZM248.047 223.411C249.588 223.483 251.139 223.565 252.704 223.661C257.468 227.187 262.61 230.991 267.121 234.329C264.693 234.155 262.316 234 259.977 233.862L248.047 223.411ZM213.849 233.572C211.399 233.686 208.906 233.821 206.355 233.976L220.602 223.435C222.297 223.353 223.977 223.288 225.647 223.236L213.849 233.572ZM242.196 223.196C243.901 223.241 245.612 223.303 247.335 223.379L258.504 233.777C254.846 233.571 251.278 233.408 247.756 233.292L242.196 223.196ZM225.874 233.16C222.408 233.232 218.894 233.347 215.289 233.506L226.344 223.213C228.04 223.164 229.725 223.132 231.406 223.113L225.874 233.16ZM237.023 223.105C238.563 223.118 240.103 223.144 241.647 223.182L246.645 233.259C243.485 233.164 240.357 233.104 237.228 233.081L237.25 232.249L237.023 223.105ZM236.475 223.1L236.25 232.249L236.269 233.075C233.186 233.061 230.099 233.083 226.977 233.139L231.951 223.107C233.461 223.093 234.968 223.09 236.475 223.1ZM236.861 213.508C238.305 213.577 239.732 214.063 240.955 214.968C243.616 216.937 247.248 219.625 251.229 222.571C249.756 222.487 248.294 222.415 246.84 222.354L236.972 213.709L236.861 213.508ZM236.698 213.502L236.644 213.603L226.829 222.199C225.243 222.243 223.649 222.298 222.043 222.367L232.036 214.974C233.419 213.95 235.064 213.46 236.698 213.502ZM246.205 222.327C244.675 222.266 243.153 222.216 241.636 222.179L236.996 213.753L246.205 222.327ZM231.961 222.105C230.462 222.119 228.96 222.144 227.451 222.182L236.619 213.647L231.961 222.105ZM236.951 213.712L241.144 222.168C239.76 222.136 238.379 222.113 236.998 222.102L236.787 213.559L236.951 213.712ZM236.499 222.098C235.15 222.089 233.801 222.09 232.449 222.101L236.661 213.608L236.71 213.562L236.499 222.098ZM236.786 213.503C236.808 213.504 236.829 213.506 236.851 213.507L236.934 213.676L236.787 213.547L236.786 213.503ZM236.711 213.544L236.679 213.572L236.712 213.506L236.711 213.544Z" fill="#FFA103"/>
</g>
<path d="M345.967 291L323.599 220.92H337.711L356.239 281.592L352.207 279.672H362.575L358.447 281.592L375.535 220.92H389.167L368.431 291H345.967ZM400.101 291V238.872H413.445V291H400.101ZM392.805 248.856V238.872H413.445V248.856H392.805ZM404.997 232.632C402.373 232.632 400.421 231.96 399.141 230.616C397.925 229.208 397.317 227.48 397.317 225.432C397.317 223.256 397.925 221.496 399.141 220.152C400.421 218.808 402.373 218.136 404.997 218.136C407.621 218.136 409.541 218.808 410.757 220.152C411.973 221.496 412.581 223.256 412.581 225.432C412.581 227.48 411.973 229.208 410.757 230.616C409.541 231.96 407.621 232.632 404.997 232.632ZM428.824 291V238.872H439.384V261.24H438.424C438.424 255.928 439.128 251.512 440.536 247.992C441.944 244.408 444.024 241.72 446.776 239.928C449.592 238.136 453.08 237.24 457.24 237.24H457.816C464.024 237.24 468.728 239.256 471.928 243.288C475.128 247.256 476.728 253.208 476.728 261.144V291H463.384V259.992C463.384 256.792 462.456 254.2 460.6 252.216C458.808 250.232 456.312 249.24 453.112 249.24C449.848 249.24 447.192 250.264 445.144 252.312C443.16 254.296 442.168 256.984 442.168 260.376V291H428.824ZM522.658 291V275.544H520.45V258.36C520.45 255.352 519.714 253.112 518.242 251.64C516.77 250.168 514.498 249.432 511.426 249.432C509.826 249.432 507.906 249.464 505.666 249.528C503.426 249.592 501.154 249.688 498.85 249.816C496.61 249.88 494.594 249.976 492.802 250.104V238.776C494.274 238.648 495.938 238.52 497.794 238.392C499.65 238.264 501.538 238.2 503.458 238.2C505.442 238.136 507.298 238.104 509.026 238.104C514.402 238.104 518.85 238.808 522.37 240.216C525.954 241.624 528.642 243.832 530.434 246.84C532.29 249.848 533.218 253.784 533.218 258.648V291H522.658ZM505.858 292.344C502.082 292.344 498.754 291.672 495.874 290.328C493.058 288.984 490.85 287.064 489.25 284.568C487.714 282.072 486.946 279.064 486.946 275.544C486.946 271.704 487.874 268.568 489.73 266.136C491.65 263.704 494.306 261.88 497.698 260.664C501.154 259.448 505.186 258.84 509.794 258.84H521.89V266.808H509.602C506.53 266.808 504.162 267.576 502.498 269.112C500.898 270.584 500.098 272.504 500.098 274.872C500.098 277.24 500.898 279.16 502.498 280.632C504.162 282.104 506.53 282.84 509.602 282.84C511.458 282.84 513.154 282.52 514.69 281.88C516.29 281.176 517.602 280.024 518.626 278.424C519.714 276.76 520.322 274.52 520.45 271.704L523.714 275.448C523.394 279.096 522.498 282.168 521.026 284.664C519.618 287.16 517.634 289.08 515.074 290.424C512.578 291.704 509.506 292.344 505.858 292.344ZM566.423 292.632C559.255 292.632 553.623 291.128 549.527 288.12C545.495 285.048 543.383 280.824 543.191 275.448H555.191C555.383 277.24 556.375 278.872 558.167 280.344C559.959 281.816 562.775 282.552 566.615 282.552C569.815 282.552 572.343 281.976 574.199 280.824C576.119 279.672 577.079 278.104 577.079 276.12C577.079 274.392 576.343 273.016 574.871 271.992C573.463 270.968 571.031 270.296 567.575 269.976L562.967 269.496C557.143 268.856 552.663 267.192 549.527 264.504C546.391 261.816 544.823 258.232 544.823 253.752C544.823 250.168 545.719 247.16 547.511 244.728C549.303 242.296 551.767 240.472 554.903 239.256C558.103 237.976 561.751 237.336 565.847 237.336C572.247 237.336 577.431 238.744 581.399 241.56C585.367 244.376 587.447 248.504 587.639 253.944H575.639C575.511 252.152 574.615 250.616 572.951 249.336C571.287 248.056 568.887 247.416 565.751 247.416C562.935 247.416 560.759 247.96 559.223 249.048C557.687 250.136 556.919 251.544 556.919 253.272C556.919 254.936 557.527 256.216 558.743 257.112C560.023 258.008 562.071 258.616 564.887 258.936L569.495 259.416C575.639 260.056 580.439 261.752 583.895 264.504C587.415 267.256 589.175 270.968 589.175 275.64C589.175 279.096 588.215 282.104 586.295 284.664C584.439 287.16 581.815 289.112 578.423 290.52C575.031 291.928 571.031 292.632 566.423 292.632ZM617.586 291L627.474 240.6H642.834L654.258 291H643.698L632.082 240.888H637.65L627.378 291H617.586ZM613.65 291L613.554 280.056H624.21V291H613.65ZM608.274 291L594.066 238.872H607.026L620.562 291H608.274ZM647.058 291V280.056H657.714L657.618 291H647.058ZM651.282 291L663.282 238.872H675.378L662.802 291H651.282ZM716.814 291V275.544H714.606V258.36C714.606 255.352 713.87 253.112 712.398 251.64C710.926 250.168 708.654 249.432 705.582 249.432C703.982 249.432 702.062 249.464 699.822 249.528C697.582 249.592 695.31 249.688 693.006 249.816C690.766 249.88 688.75 249.976 686.958 250.104V238.776C688.43 238.648 690.094 238.52 691.95 238.392C693.806 238.264 695.694 238.2 697.614 238.2C699.598 238.136 701.454 238.104 703.182 238.104C708.558 238.104 713.006 238.808 716.526 240.216C720.11 241.624 722.798 243.832 724.59 246.84C726.446 249.848 727.374 253.784 727.374 258.648V291H716.814ZM700.014 292.344C696.238 292.344 692.91 291.672 690.03 290.328C687.214 288.984 685.006 287.064 683.406 284.568C681.87 282.072 681.102 279.064 681.102 275.544C681.102 271.704 682.03 268.568 683.886 266.136C685.806 263.704 688.462 261.88 691.854 260.664C695.31 259.448 699.342 258.84 703.95 258.84H716.046V266.808H703.758C700.686 266.808 698.318 267.576 696.654 269.112C695.054 270.584 694.254 272.504 694.254 274.872C694.254 277.24 695.054 279.16 696.654 280.632C698.318 282.104 700.686 282.84 703.758 282.84C705.614 282.84 707.31 282.52 708.846 281.88C710.446 281.176 711.758 280.024 712.782 278.424C713.87 276.76 714.478 274.52 714.606 271.704L717.87 275.448C717.55 279.096 716.654 282.168 715.182 284.664C713.774 287.16 711.79 289.08 709.23 290.424C706.734 291.704 703.662 292.344 700.014 292.344ZM741.667 310.2V238.872H752.227V261.336L750.595 261.24C750.851 255.928 751.939 251.48 753.859 247.896C755.843 244.312 758.467 241.656 761.731 239.928C764.995 238.136 768.643 237.24 772.675 237.24C776.387 237.24 779.715 237.912 782.659 239.256C785.667 240.6 788.227 242.488 790.339 244.92C792.515 247.352 794.179 250.2 795.331 253.464C796.483 256.664 797.059 260.12 797.059 263.832V265.848C797.059 269.624 796.483 273.144 795.331 276.408C794.243 279.608 792.611 282.456 790.435 284.952C788.323 287.384 785.763 289.304 782.755 290.712C779.747 292.056 776.387 292.728 772.675 292.728C768.771 292.728 765.187 291.928 761.923 290.328C758.723 288.664 756.131 286.136 754.147 282.744C752.163 279.288 751.043 274.84 750.787 269.4L755.011 275.832V310.2H741.667ZM769.315 281.496C772.195 281.496 774.691 280.792 776.803 279.384C778.979 277.976 780.675 276.024 781.891 273.528C783.107 270.968 783.715 268.088 783.715 264.888C783.715 261.56 783.107 258.68 781.891 256.248C780.675 253.816 778.979 251.928 776.803 250.584C774.691 249.176 772.195 248.472 769.315 248.472C766.691 248.472 764.259 249.048 762.019 250.2C759.843 251.352 758.051 253.048 756.643 255.288C755.299 257.528 754.627 260.216 754.627 263.352V267.192C754.627 270.2 755.331 272.76 756.739 274.872C758.147 276.984 759.971 278.616 762.211 279.768C764.451 280.92 766.819 281.496 769.315 281.496Z" fill="#FFA103"/>
<path d="M535.2 227L529.803 211.427H531.957L536.8 225.635L535.776 225.123H538.336L537.248 225.635L541.707 211.427H543.797L538.784 227H535.2ZM557.408 227V211.427H559.499V227H557.408ZM574.741 227V211.427H576.831V227H574.741ZM576.405 227V225.123H583.957V227H576.405ZM576.405 220.024V218.147H583.295V220.024H576.405ZM576.405 213.304V211.427H583.743V213.304H576.405ZM601.228 227V212.877H603.319V227H601.228ZM596.492 213.304V211.427H608.055V213.304H596.492ZM621.532 227V211.427H624.946L632.86 225.123H633.543L633.116 225.507V211.427H635.122V227H631.666L623.751 213.304H623.068L623.495 212.92V227H621.532ZM648.639 227L654.25 211.427H657.791L663.572 227H661.418L656.191 212.792L657.215 213.304H654.698L655.786 212.792L650.73 227H648.639ZM651.988 222.349L652.692 220.472H659.412L660.116 222.349H651.988ZM677.095 227V211.427H679.868L684.476 221.816H684.817L689.404 211.427H692.199V227H690.108V213.709L690.257 213.752L685.841 223.779H683.281L678.844 213.752L679.015 213.709V227H677.095ZM724.571 227.085V225.165H728.454C729.393 225.165 730.225 225.016 730.95 224.717C731.689 224.404 732.315 223.978 732.827 223.437C733.353 222.897 733.752 222.264 734.022 221.539C734.292 220.813 734.427 220.031 734.427 219.192C734.427 218.31 734.292 217.514 734.022 216.803C733.752 216.077 733.353 215.452 732.827 214.925C732.315 214.385 731.689 213.972 730.95 213.688C730.225 213.404 729.393 213.261 728.454 213.261H724.571V211.341H728.241C729.649 211.341 730.872 211.562 731.91 212.003C732.948 212.429 733.809 213.012 734.491 213.752C735.188 214.477 735.707 215.295 736.049 216.205C736.39 217.101 736.561 218.019 736.561 218.957V219.427C736.561 220.337 736.39 221.247 736.049 222.157C735.707 223.068 735.188 223.892 734.491 224.632C733.809 225.372 732.948 225.969 731.91 226.424C730.872 226.865 729.649 227.085 728.241 227.085H724.571ZM722.907 227.085V211.341H724.998V227.085H722.907ZM750.449 227V211.427H752.54V227H750.449ZM752.113 227V225.123H759.665V227H752.113ZM752.113 220.024V218.147H759.004V220.024H752.113ZM752.113 213.304V211.427H759.452V213.304H752.113ZM773.907 227V211.427H775.998V227H773.907ZM775.571 220.067V218.189L782.249 218.168V220.045L775.571 220.067ZM775.571 213.304V211.427H782.611V213.304H775.571ZM796.554 227V211.427H798.645V227H796.554Z" fill="#FFD7A0"/>
<defs>
<clipPath id="clip0_2295_4800">
<rect width="128" height="128" fill="white" transform="translate(172.25 192)"/>
</clipPath>
</defs>
</svg>
