<svg width="1200" height="630" viewBox="0 0 1200 630" fill="none" xmlns="http://www.w3.org/2000/svg">
<rect width="1200" height="630" fill="#8B2121"/>
<g clip-path="url(#clip0_2295_4800)">
<path fill-rule="evenodd" clip-rule="evenodd" d="M330.77 314.499C343.022 314.499 354.35 315.211 363.543 316.417C366.593 316.817 369.403 318.655 370.215 321.622C370.59 322.992 370.79 324.373 370.79 325.754C370.79 341.387 351.718 357.02 330.77 357.02C309.822 357.02 290.75 343.021 290.75 325.754C290.75 324.493 290.887 323.25 291.146 322.028C291.816 318.869 294.728 316.847 297.93 316.426C307.135 315.214 318.488 314.499 330.77 314.499ZM319.237 335.723C317.894 334.64 315.927 334.85 314.842 336.193C313.758 337.536 313.967 339.505 315.311 340.589L317.275 338.157C315.311 340.589 315.312 340.59 315.313 340.591L315.314 340.592C315.315 340.593 315.317 340.594 315.319 340.595C315.321 340.598 315.325 340.601 315.328 340.604C315.336 340.609 315.344 340.616 315.354 340.624C315.374 340.64 315.4 340.66 315.431 340.684C315.493 340.732 315.577 340.795 315.682 340.872C315.892 341.026 316.187 341.233 316.56 341.476C317.306 341.962 318.376 342.595 319.719 343.224C322.394 344.478 326.239 345.756 330.821 345.754C335.341 345.751 339.144 344.62 341.806 343.503C343.141 342.942 344.206 342.377 344.95 341.943C345.323 341.726 345.618 341.541 345.827 341.403C345.932 341.335 346.016 341.278 346.078 341.235C346.109 341.214 346.135 341.196 346.155 341.181C346.165 341.174 346.174 341.168 346.181 341.163C346.185 341.16 346.188 341.158 346.191 341.155C346.193 341.154 346.194 341.153 346.195 341.152L346.197 341.151C346.197 341.148 346.146 341.077 344.489 338.784L346.199 341.15C347.598 340.138 347.913 338.184 346.901 336.784C345.89 335.386 343.937 335.071 342.537 336.081L342.528 336.088C342.505 336.103 342.462 336.132 342.4 336.173C342.275 336.255 342.074 336.382 341.802 336.541C341.257 336.858 340.435 337.296 339.384 337.737C337.274 338.624 334.303 339.499 330.818 339.5C327.396 339.502 324.468 338.544 322.372 337.562C321.33 337.074 320.514 336.588 319.971 336.235C319.7 336.059 319.5 335.917 319.375 335.826C319.313 335.781 319.27 335.748 319.247 335.73L319.237 335.722L319.237 335.723ZM313.523 318.772C310.76 318.772 308.521 321.012 308.521 323.775C308.521 326.537 310.76 328.777 313.523 328.777C316.286 328.777 318.526 326.537 318.526 323.775C318.526 321.012 316.286 318.772 313.523 318.772ZM348.541 318.772C345.778 318.772 343.538 321.012 343.538 323.775C343.538 326.537 345.778 328.777 348.541 328.777C351.304 328.777 353.543 326.537 353.543 323.775C353.543 321.012 351.304 318.772 348.541 318.772Z" fill="#FFA103"/>
<path d="M370.622 307.815C374.82 308.375 379.189 309.011 383.78 309.726C386.741 311.917 389.439 313.913 391.592 315.505C394.779 317.864 396.128 321.796 392.891 324.085C389.727 326.322 383.907 328.907 373.2 330.853C373.569 329.177 373.836 327.476 373.996 325.757C381.923 324.028 386.685 321.813 386.685 319.398C386.685 317.306 383.113 315.364 377.006 313.758L370.622 307.815ZM285.666 313.601C279.189 315.236 275.379 317.237 275.379 319.398C275.379 321.747 279.886 323.907 287.429 325.614C287.584 327.345 287.847 329.058 288.214 330.745C277.879 328.813 272.214 326.281 269.108 324.085C265.871 321.796 267.222 317.862 270.409 315.504L279.377 308.868C283.995 308.21 288.39 307.633 292.613 307.132L285.666 313.601ZM348.857 305.497C355.527 305.992 362.454 306.734 369.923 307.721L376.733 313.688C370.442 312.064 361.541 310.792 351.123 310.067L348.857 305.497ZM311.458 310.03C301.149 310.726 292.294 311.956 285.936 313.533L293.345 307.044C300.594 306.197 307.34 305.583 313.851 305.205L311.458 310.03ZM331.416 304.759C336.989 304.808 342.567 305.041 348.333 305.458L350.86 310.048C344.78 309.631 338.189 309.4 331.302 309.394L331.416 304.759ZM331.083 304.757L331.197 309.393C331.142 309.393 331.087 309.393 331.032 309.393C324.241 309.393 317.734 309.612 311.717 310.012L314.38 305.175C320.064 304.856 325.573 304.716 331.083 304.757ZM355.704 293.936C358.13 294.085 360.599 294.254 363.125 294.442C363.362 294.617 363.597 294.791 363.829 294.963C369.3 299.011 376.08 304.028 382.056 308.449C377.637 307.773 373.42 307.172 369.362 306.642L355.905 294.113L355.704 293.936ZM306.712 294.006L293.851 305.98C289.762 306.452 285.516 306.997 281.064 307.619L298.171 294.963L299.381 294.068C302.026 293.9 304.608 293.754 307.141 293.629L306.712 294.006ZM342.815 293.312C346.523 293.439 350.283 293.616 354.148 293.843L355.235 294.855L368.572 306.537C361.429 305.616 354.77 304.922 348.343 304.458L342.815 293.312ZM314.361 304.175C308.089 304.526 301.603 305.096 294.669 305.884L307.382 294.748L308.66 293.557C312.468 293.38 316.171 293.251 319.817 293.171L314.361 304.175ZM331.704 293.081C335.007 293.105 338.309 293.17 341.649 293.275L341.883 293.744L347.759 304.416C342.205 304.026 336.82 303.808 331.44 303.76L331.704 293.081ZM330.795 293.075L331.059 303.757C325.74 303.718 320.423 303.848 314.949 304.143L320.734 293.638L320.977 293.148C324.278 293.084 327.539 293.06 330.795 293.075ZM342.547 282.411C344.088 282.483 345.639 282.565 347.204 282.661C351.968 286.187 357.11 289.991 361.621 293.329C359.193 293.155 356.816 293 354.477 292.862L342.547 282.411ZM308.349 292.572C305.899 292.686 303.406 292.821 300.855 292.976L315.102 282.435C316.797 282.353 318.477 282.288 320.147 282.236L308.349 292.572ZM336.696 282.196C338.401 282.241 340.112 282.303 341.835 282.379L353.004 292.777C349.346 292.571 345.778 292.408 342.256 292.292L336.696 282.196ZM320.374 292.16C316.908 292.232 313.394 292.347 309.789 292.506L320.844 282.213C322.539 282.164 324.225 282.132 325.906 282.113L320.374 292.16ZM331.523 282.105C333.063 282.118 334.603 282.144 336.147 282.182L341.145 292.259C337.985 292.164 334.857 292.104 331.728 292.081L331.75 291.249L331.523 282.105ZM330.975 282.1L330.75 291.249L330.769 292.075C327.686 292.061 324.599 292.083 321.477 292.139L326.451 282.107C327.961 282.093 329.468 282.09 330.975 282.1ZM331.361 272.508C332.805 272.577 334.232 273.063 335.455 273.968C338.116 275.937 341.748 278.625 345.729 281.571C344.256 281.487 342.794 281.415 341.34 281.354L331.472 272.709L331.361 272.508ZM331.198 272.502L331.143 272.603L321.329 281.199C319.743 281.243 318.149 281.298 316.543 281.367L326.536 273.974C327.919 272.95 329.564 272.46 331.198 272.502ZM340.705 281.327C339.175 281.266 337.653 281.216 336.136 281.179L331.496 272.753L340.705 281.327ZM326.461 281.105C324.962 281.119 323.46 281.144 321.951 281.182L331.119 272.647L326.461 281.105ZM331.451 272.712L335.644 281.168C334.26 281.136 332.879 281.113 331.498 281.102L331.287 272.559L331.451 272.712ZM330.999 281.098C329.65 281.089 328.301 281.09 326.949 281.101L331.161 272.608L331.21 272.562L330.999 281.098ZM331.286 272.503C331.308 272.504 331.329 272.506 331.351 272.507L331.434 272.676L331.287 272.547L331.286 272.503ZM331.211 272.544L331.179 272.572L331.212 272.506L331.211 272.544Z" fill="#FFA103"/>
</g>
<path d="M424.723 350V279.92H447.091L476.563 338.672H479.731L477.811 340.4V279.92H490.675V350H468.211L438.739 291.248H435.475L437.395 289.52V350H424.723ZM531.973 351.824C527.365 351.824 523.301 351.088 519.781 349.616C516.261 348.144 513.285 346.16 510.853 343.664C508.421 341.104 506.565 338.224 505.285 335.024C504.069 331.824 503.461 328.496 503.461 325.04V323.024C503.461 319.44 504.101 316.048 505.381 312.848C506.725 309.584 508.613 306.704 511.045 304.208C513.541 301.648 516.549 299.664 520.069 298.256C523.589 296.784 527.557 296.048 531.973 296.048C536.389 296.048 540.357 296.784 543.877 298.256C547.397 299.664 550.373 301.648 552.805 304.208C555.301 306.704 557.189 309.584 558.469 312.848C559.749 316.048 560.389 319.44 560.389 323.024V325.04C560.389 328.496 559.749 331.824 558.469 335.024C557.253 338.224 555.429 341.104 552.997 343.664C550.565 346.16 547.589 348.144 544.069 349.616C540.549 351.088 536.517 351.824 531.973 351.824ZM531.973 340.4C535.237 340.4 537.989 339.696 540.229 338.288C542.469 336.816 544.165 334.864 545.317 332.432C546.469 329.936 547.045 327.12 547.045 323.984C547.045 320.784 546.437 317.968 545.221 315.536C544.069 313.04 542.341 311.088 540.037 309.68C537.797 308.208 535.109 307.472 531.973 307.472C528.837 307.472 526.117 308.208 523.813 309.68C521.573 311.088 519.845 313.04 518.629 315.536C517.413 317.968 516.805 320.784 516.805 323.984C516.805 327.12 517.381 329.936 518.533 332.432C519.749 334.864 521.477 336.816 523.717 338.288C525.957 339.696 528.709 340.4 531.973 340.4ZM572.746 350V279.92H586.09V350H572.746ZM566.218 289.904V279.92H586.09V289.904H566.218ZM626.38 351.824C621.772 351.824 617.708 351.088 614.188 349.616C610.668 348.144 607.692 346.16 605.26 343.664C602.828 341.104 600.972 338.224 599.692 335.024C598.476 331.824 597.868 328.496 597.868 325.04V323.024C597.868 319.44 598.508 316.048 599.788 312.848C601.132 309.584 603.02 306.704 605.452 304.208C607.948 301.648 610.956 299.664 614.476 298.256C617.996 296.784 621.964 296.048 626.38 296.048C630.796 296.048 634.764 296.784 638.284 298.256C641.804 299.664 644.78 301.648 647.212 304.208C649.708 306.704 651.596 309.584 652.876 312.848C654.156 316.048 654.796 319.44 654.796 323.024V325.04C654.796 328.496 654.156 331.824 652.876 335.024C651.66 338.224 649.836 341.104 647.404 343.664C644.972 346.16 641.996 348.144 638.476 349.616C634.956 351.088 630.924 351.824 626.38 351.824ZM626.38 340.4C629.644 340.4 632.396 339.696 634.636 338.288C636.876 336.816 638.572 334.864 639.724 332.432C640.876 329.936 641.452 327.12 641.452 323.984C641.452 320.784 640.844 317.968 639.628 315.536C638.476 313.04 636.748 311.088 634.444 309.68C632.204 308.208 629.516 307.472 626.38 307.472C623.244 307.472 620.524 308.208 618.22 309.68C615.98 311.088 614.252 313.04 613.036 315.536C611.82 317.968 611.212 320.784 611.212 323.984C611.212 327.12 611.788 329.936 612.94 332.432C614.156 334.864 615.884 336.816 618.124 338.288C620.364 339.696 623.116 340.4 626.38 340.4ZM691.44 351.824C685.232 351.824 679.984 350.832 675.696 348.848C671.472 346.864 668.24 344.144 666 340.688C663.76 337.168 662.64 333.2 662.64 328.784H675.984C675.984 330.64 676.496 332.464 677.52 334.256C678.544 335.984 680.176 337.392 682.416 338.48C684.72 339.568 687.728 340.112 691.44 340.112C694.768 340.112 697.552 339.632 699.792 338.672C702.032 337.712 703.696 336.464 704.784 334.928C705.872 333.328 706.416 331.536 706.416 329.552C706.416 327.056 705.36 325.072 703.248 323.6C701.136 322.064 697.872 321.104 693.456 320.72L687.312 320.24C680.592 319.664 675.216 317.584 671.184 314C667.216 310.352 665.232 305.552 665.232 299.6C665.232 295.12 666.288 291.28 668.4 288.08C670.512 284.816 673.456 282.32 677.232 280.592C681.072 278.8 685.552 277.904 690.672 277.904C695.984 277.904 700.56 278.832 704.4 280.688C708.24 282.544 711.216 285.168 713.328 288.56C715.44 291.888 716.496 295.824 716.496 300.368H703.152C703.152 298.448 702.672 296.688 701.712 295.088C700.816 293.424 699.44 292.112 697.584 291.152C695.792 290.128 693.488 289.616 690.672 289.616C687.984 289.616 685.744 290.064 683.952 290.96C682.16 291.856 680.816 293.072 679.92 294.608C679.024 296.144 678.576 297.808 678.576 299.6C678.576 301.776 679.376 303.696 680.976 305.36C682.576 306.96 685.104 307.888 688.56 308.144L694.704 308.72C699.696 309.104 704.08 310.16 707.856 311.888C711.632 313.616 714.544 315.952 716.592 318.896C718.704 321.84 719.76 325.392 719.76 329.552C719.76 333.968 718.608 337.872 716.304 341.264C714 344.592 710.704 347.184 706.416 349.04C702.192 350.896 697.2 351.824 691.44 351.824ZM749.023 350L758.911 299.6H774.271L785.695 350H775.135L763.519 299.888H769.087L758.815 350H749.023ZM745.087 350L744.991 339.056H755.647V350H745.087ZM739.711 350L725.503 297.872H738.463L751.999 350H739.711ZM778.495 350V339.056H789.151L789.055 350H778.495ZM782.719 350L794.719 297.872H806.815L794.239 350H782.719ZM848.251 350V334.544H846.043V317.36C846.043 314.352 845.307 312.112 843.835 310.64C842.363 309.168 840.091 308.432 837.019 308.432C835.419 308.432 833.499 308.464 831.259 308.528C829.019 308.592 826.747 308.688 824.443 308.816C822.203 308.88 820.187 308.976 818.395 309.104V297.776C819.867 297.648 821.531 297.52 823.387 297.392C825.243 297.264 827.131 297.2 829.051 297.2C831.035 297.136 832.891 297.104 834.619 297.104C839.995 297.104 844.443 297.808 847.963 299.216C851.547 300.624 854.235 302.832 856.027 305.84C857.883 308.848 858.811 312.784 858.811 317.648V350H848.251ZM831.451 351.344C827.675 351.344 824.347 350.672 821.467 349.328C818.651 347.984 816.443 346.064 814.843 343.568C813.307 341.072 812.539 338.064 812.539 334.544C812.539 330.704 813.467 327.568 815.323 325.136C817.243 322.704 819.899 320.88 823.291 319.664C826.747 318.448 830.779 317.84 835.387 317.84H847.483V325.808H835.195C832.123 325.808 829.755 326.576 828.091 328.112C826.491 329.584 825.691 331.504 825.691 333.872C825.691 336.24 826.491 338.16 828.091 339.632C829.755 341.104 832.123 341.84 835.195 341.84C837.051 341.84 838.747 341.52 840.283 340.88C841.883 340.176 843.195 339.024 844.219 337.424C845.307 335.76 845.915 333.52 846.043 330.704L849.307 334.448C848.987 338.096 848.091 341.168 846.619 343.664C845.211 346.16 843.227 348.08 840.667 349.424C838.171 350.704 835.099 351.344 831.451 351.344ZM873.105 369.2V297.872H883.665V320.336L882.033 320.24C882.289 314.928 883.377 310.48 885.297 306.896C887.281 303.312 889.905 300.656 893.169 298.928C896.433 297.136 900.081 296.24 904.113 296.24C907.825 296.24 911.153 296.912 914.097 298.256C917.105 299.6 919.665 301.488 921.777 303.92C923.953 306.352 925.617 309.2 926.769 312.464C927.921 315.664 928.497 319.12 928.497 322.832V324.848C928.497 328.624 927.921 332.144 926.769 335.408C925.681 338.608 924.049 341.456 921.873 343.952C919.761 346.384 917.201 348.304 914.193 349.712C911.185 351.056 907.825 351.728 904.113 351.728C900.209 351.728 896.625 350.928 893.361 349.328C890.161 347.664 887.569 345.136 885.585 341.744C883.601 338.288 882.481 333.84 882.225 328.4L886.449 334.832V369.2H873.105ZM900.753 340.496C903.633 340.496 906.129 339.792 908.241 338.384C910.417 336.976 912.113 335.024 913.329 332.528C914.545 329.968 915.153 327.088 915.153 323.888C915.153 320.56 914.545 317.68 913.329 315.248C912.113 312.816 910.417 310.928 908.241 309.584C906.129 308.176 903.633 307.472 900.753 307.472C898.129 307.472 895.697 308.048 893.457 309.2C891.281 310.352 889.489 312.048 888.081 314.288C886.737 316.528 886.065 319.216 886.065 322.352V326.192C886.065 329.2 886.769 331.76 888.177 333.872C889.585 335.984 891.409 337.616 893.649 338.768C895.889 339.92 898.257 340.496 900.753 340.496Z" fill="#FFA103"/>
<path d="M648.2 274L642.803 258.427H644.957L649.8 272.635L648.776 272.123H651.336L650.248 272.635L654.707 258.427H656.797L651.784 274H648.2ZM670.408 274V258.427H672.499V274H670.408ZM687.741 274V258.427H689.831V274H687.741ZM689.405 274V272.123H696.957V274H689.405ZM689.405 267.024V265.147H696.295V267.024H689.405ZM689.405 260.304V258.427H696.743V260.304H689.405ZM714.228 274V259.877H716.319V274H714.228ZM709.492 260.304V258.427H721.055V260.304H709.492ZM734.532 274V258.427H737.946L745.86 272.123H746.543L746.116 272.507V258.427H748.122V274H744.666L736.751 260.304H736.068L736.495 259.92V274H734.532ZM761.639 274L767.25 258.427H770.791L776.572 274H774.418L769.191 259.792L770.215 260.304H767.698L768.786 259.792L763.73 274H761.639ZM764.988 269.349L765.692 267.472H772.412L773.116 269.349H764.988ZM790.095 274V258.427H792.868L797.476 268.816H797.817L802.404 258.427H805.199V274H803.108V260.709L803.257 260.752L798.841 270.779H796.281L791.844 260.752L792.015 260.709V274H790.095ZM837.571 274.085V272.165H841.454C842.393 272.165 843.225 272.016 843.95 271.717C844.689 271.404 845.315 270.978 845.827 270.437C846.353 269.897 846.752 269.264 847.022 268.539C847.292 267.813 847.427 267.031 847.427 266.192C847.427 265.31 847.292 264.514 847.022 263.803C846.752 263.077 846.353 262.452 845.827 261.925C845.315 261.385 844.689 260.972 843.95 260.688C843.225 260.404 842.393 260.261 841.454 260.261H837.571V258.341H841.241C842.649 258.341 843.872 258.562 844.91 259.003C845.948 259.429 846.809 260.012 847.491 260.752C848.188 261.477 848.707 262.295 849.049 263.205C849.39 264.101 849.561 265.019 849.561 265.957V266.427C849.561 267.337 849.39 268.247 849.049 269.157C848.707 270.068 848.188 270.892 847.491 271.632C846.809 272.372 845.948 272.969 844.91 273.424C843.872 273.865 842.649 274.085 841.241 274.085H837.571ZM835.907 274.085V258.341H837.998V274.085H835.907ZM863.449 274V258.427H865.54V274H863.449ZM865.113 274V272.123H872.665V274H865.113ZM865.113 267.024V265.147H872.004V267.024H865.113ZM865.113 260.304V258.427H872.452V260.304H865.113ZM886.907 274V258.427H888.998V274H886.907ZM888.571 267.067V265.189L895.249 265.168V267.045L888.571 267.067ZM888.571 260.304V258.427H895.611V260.304H888.571ZM909.554 274V258.427H911.645V274H909.554Z" fill="#FFD7A0"/>
<defs>
<clipPath id="clip0_2295_4800">
<rect width="128" height="128" fill="white" transform="translate(266.75 251)"/>
</clipPath>
</defs>
</svg>
