<svg width="512" height="512" viewBox="0 0 512 512" fill="none" xmlns="http://www.w3.org/2000/svg">
<rect width="512" height="512" fill="#8B2121"/>
<path fill-rule="evenodd" clip-rule="evenodd" d="M256.063 254.433C294.351 254.433 329.75 256.658 358.479 260.427C368.009 261.677 376.792 267.422 379.328 276.693C380.499 280.975 381.126 285.29 381.126 289.606C381.125 338.459 321.525 387.311 256.063 387.311C190.601 387.311 131.001 343.567 131.001 289.606C131.001 285.667 131.427 281.781 132.237 277.964C134.33 268.089 143.431 261.773 153.439 260.456C182.204 256.67 217.682 254.433 256.063 254.433ZM220.022 320.759C215.824 317.375 209.677 318.031 206.289 322.226C202.899 326.425 203.554 332.577 207.752 335.967L213.891 328.365C207.752 335.967 207.756 335.969 207.758 335.972L207.763 335.976C207.767 335.979 207.772 335.982 207.777 335.985C207.786 335.993 207.796 336.002 207.807 336.011C207.83 336.029 207.857 336.051 207.888 336.075C207.951 336.125 208.032 336.187 208.129 336.261C208.323 336.411 208.586 336.611 208.913 336.85C209.569 337.33 210.49 337.979 211.657 338.738C213.988 340.255 217.331 342.234 221.528 344.201C229.888 348.119 241.902 352.111 256.222 352.105C270.347 352.098 282.231 348.564 290.549 345.07C294.722 343.318 298.049 341.554 300.376 340.198C301.541 339.519 302.461 338.94 303.117 338.511C303.444 338.296 303.707 338.118 303.901 337.984C303.998 337.917 304.079 337.861 304.142 337.816C304.173 337.794 304.2 337.775 304.223 337.758C304.234 337.75 304.244 337.742 304.253 337.735C304.258 337.732 304.263 337.729 304.267 337.726L304.273 337.722C304.271 337.713 304.113 337.49 298.934 330.326L304.278 337.719C308.651 334.557 309.633 328.449 306.472 324.076C303.312 319.705 297.208 318.722 292.835 321.879L292.806 321.898C292.735 321.948 292.599 322.038 292.405 322.165C292.015 322.421 291.387 322.819 290.537 323.314C288.834 324.307 286.267 325.675 282.983 327.054C276.386 329.825 267.102 332.558 256.213 332.563C245.518 332.567 236.368 329.575 229.82 326.507C226.562 324.98 224.011 323.463 222.315 322.359C221.47 321.809 220.842 321.367 220.454 321.082C220.26 320.94 220.126 320.837 220.054 320.781L220.02 320.757L220.022 320.759ZM202.166 267.788C193.532 267.788 186.534 274.787 186.533 283.42C186.533 292.054 193.532 299.053 202.166 299.053C210.8 299.053 217.799 292.054 217.799 283.42C217.799 274.787 210.8 267.788 202.166 267.788ZM311.596 267.788C302.962 267.788 295.963 274.787 295.963 283.42C295.963 292.054 302.962 299.053 311.596 299.053C320.23 299.053 327.229 292.054 327.229 283.42C327.228 274.787 320.23 267.788 311.596 267.788Z" fill="#FFA103"/>
<path d="M380.591 233.536C393.711 235.289 407.37 237.281 421.721 239.516C430.974 246.363 439.404 252.6 446.13 257.576C456.089 264.946 460.306 277.236 450.19 284.39C440.306 291.379 422.121 299.458 388.668 305.538C389.821 300.303 390.652 294.985 391.152 289.613C415.92 284.211 430.796 277.289 430.797 269.741C430.797 263.203 419.633 257.135 400.547 252.116L380.591 233.536ZM115.111 251.626C94.8697 256.737 82.9658 262.99 82.9657 269.741C82.9661 277.084 97.0449 283.832 120.613 289.167C121.098 294.576 121.918 299.931 123.064 305.202C90.775 299.163 73.0739 291.251 63.371 284.39C53.2542 277.236 57.475 264.943 67.4354 257.573L95.4667 236.831C109.901 234.773 123.637 232.964 136.836 231.4L115.111 251.626ZM312.587 226.305C333.426 227.851 355.072 230.164 378.407 233.247L399.693 251.894C380.033 246.819 352.219 242.843 319.663 240.576L312.587 226.305ZM195.716 240.466C163.499 242.642 135.826 246.488 115.959 251.417L139.118 231.131C161.768 228.483 182.85 226.569 203.192 225.389L195.716 240.466ZM258.082 223.996C275.497 224.149 292.927 224.878 310.947 226.183L318.843 240.521C299.843 239.218 279.246 238.496 257.724 238.478L258.082 223.996ZM257.042 223.989L257.399 238.477C257.227 238.477 257.054 238.476 256.882 238.476C235.66 238.476 215.327 239.16 196.524 240.411L204.848 225.294C222.611 224.297 239.824 223.862 257.042 223.989ZM333.978 190.173C341.558 190.64 349.275 191.164 357.169 191.751C357.91 192.299 358.644 192.843 359.371 193.381C376.465 206.029 397.648 221.704 416.319 235.519C402.507 233.404 389.329 231.52 376.644 229.863L334.611 190.728L333.978 190.173ZM180.88 190.394L140.701 227.801C127.923 229.277 114.651 230.986 100.738 232.931L154.189 193.381L157.969 190.583C166.237 190.061 174.307 189.606 182.223 189.215L180.88 190.394ZM293.702 188.223C305.286 188.619 317.035 189.172 329.115 189.88L332.516 193.047L374.179 229.543C351.861 226.665 331.054 224.502 310.973 223.052L293.702 188.223ZM204.79 222.167C185.189 223.265 164.923 225.045 143.255 227.507L182.974 192.713L186.973 188.988C198.875 188.436 210.445 188.032 221.841 187.781L204.79 222.167ZM258.983 187.501C269.304 187.575 279.622 187.777 290.06 188.106L290.791 189.577L309.151 222.921C291.798 221.703 274.971 221.019 258.159 220.871L258.983 187.501ZM256.14 187.485L256.965 220.863C240.347 220.742 223.732 221.143 206.626 222.066L224.7 189.243L225.46 187.709C235.778 187.51 245.966 187.435 256.14 187.485ZM292.854 154.149C297.671 154.372 302.519 154.633 307.408 154.933C322.299 165.951 338.369 177.84 352.47 188.274C344.88 187.728 337.448 187.242 330.139 186.81L292.854 154.149ZM186.003 185.904C178.348 186.264 170.556 186.684 162.586 187.167L207.098 154.233C212.399 153.978 217.653 153.769 222.874 153.606L186.003 185.904ZM274.578 153.48C279.904 153.622 285.249 153.811 290.63 154.048L325.532 186.544C314.105 185.902 302.96 185.398 291.956 185.037L274.578 153.48ZM223.581 184.618C212.75 184.842 201.77 185.205 190.505 185.701L225.046 153.541C230.346 153.388 235.615 153.281 240.869 153.221L223.581 184.618ZM258.418 153.196C263.228 153.236 268.041 153.315 272.868 153.435L288.486 184.93C278.61 184.632 268.836 184.447 259.06 184.377L259.125 181.778L258.418 153.196ZM242.57 153.203C247.289 153.159 251.997 153.151 256.705 153.182L256 181.778L256.063 184.36C246.429 184.314 236.782 184.378 227.024 184.554L242.57 153.203ZM257.91 123.211C262.421 123.427 266.882 124.946 270.703 127.774C279.02 133.927 290.37 142.325 302.81 151.53C298.207 151.27 293.637 151.045 289.092 150.853L258.257 123.841L257.91 123.211ZM242.833 127.792C247.156 124.593 252.299 123.059 257.405 123.193L257.231 123.508L226.564 150.372C221.607 150.507 216.624 150.683 211.602 150.9L242.833 127.792ZM287.11 150.771C282.329 150.579 277.574 150.424 272.832 150.308L258.333 123.978L287.11 150.771ZM242.6 150.077C237.916 150.122 233.221 150.202 228.504 150.321L257.155 123.646L242.6 150.077ZM258.199 123.854L271.299 150.271C266.972 150.172 262.655 150.105 258.341 150.07L257.682 123.371L258.199 123.854ZM256.782 150.057C252.566 150.029 248.35 150.032 244.126 150.065L257.288 123.523L257.44 123.38L256.782 150.057ZM257.677 123.2C257.744 123.203 257.812 123.207 257.88 123.21L258.143 123.741L257.681 123.335L257.677 123.2ZM257.442 123.323L257.344 123.409L257.445 123.206L257.442 123.323Z" fill="#FFA103"/>
</svg>
