<svg width="1200" height="630" viewBox="0 0 1200 630" fill="none" xmlns="http://www.w3.org/2000/svg">
<rect width="1200" height="630" fill="#8B2121"/>
<g clip-path="url(#clip0_2295_4800)">
<path fill-rule="evenodd" clip-rule="evenodd" d="M349.27 314.499C361.522 314.499 372.85 315.211 382.043 316.417C385.093 316.817 387.903 318.655 388.715 321.622C389.09 322.992 389.29 324.373 389.29 325.754C389.29 341.387 370.218 357.02 349.27 357.02C328.322 357.02 309.25 343.021 309.25 325.754C309.25 324.493 309.387 323.25 309.646 322.028C310.316 318.869 313.228 316.847 316.43 316.426C325.635 315.214 336.988 314.499 349.27 314.499ZM337.737 335.723C336.394 334.64 334.427 334.85 333.342 336.193C332.258 337.536 332.467 339.505 333.811 340.589L335.775 338.157C333.811 340.589 333.812 340.59 333.813 340.591L333.814 340.592C333.815 340.593 333.817 340.594 333.818 340.595C333.821 340.598 333.825 340.601 333.828 340.604C333.835 340.609 333.844 340.616 333.854 340.624C333.874 340.64 333.9 340.66 333.931 340.684C333.993 340.732 334.077 340.795 334.182 340.872C334.392 341.026 334.687 341.233 335.06 341.476C335.806 341.962 336.876 342.595 338.219 343.224C340.894 344.478 344.739 345.756 349.321 345.754C353.841 345.751 357.644 344.62 360.306 343.503C361.641 342.942 362.706 342.377 363.45 341.943C363.823 341.726 364.118 341.541 364.327 341.403C364.432 341.335 364.516 341.278 364.578 341.235C364.609 341.214 364.635 341.196 364.655 341.181C364.665 341.174 364.674 341.168 364.681 341.163C364.685 341.16 364.688 341.158 364.691 341.155C364.693 341.154 364.694 341.153 364.695 341.152L364.697 341.151C364.697 341.148 364.646 341.077 362.989 338.784L364.699 341.15C366.098 340.138 366.413 338.184 365.401 336.784C364.39 335.386 362.436 335.071 361.037 336.081L361.028 336.088C361.005 336.103 360.962 336.132 360.9 336.173C360.775 336.255 360.574 336.382 360.302 336.541C359.757 336.858 358.935 337.296 357.884 337.737C355.774 338.624 352.803 339.499 349.318 339.5C345.896 339.502 342.968 338.544 340.872 337.562C339.83 337.074 339.014 336.588 338.471 336.235C338.2 336.059 337.999 335.917 337.875 335.826C337.813 335.781 337.77 335.748 337.747 335.73L337.736 335.722L337.737 335.723ZM332.023 318.772C329.26 318.772 327.021 321.012 327.021 323.775C327.021 326.537 329.26 328.777 332.023 328.777C334.786 328.777 337.026 326.537 337.026 323.775C337.025 321.012 334.786 318.772 332.023 318.772ZM367.041 318.772C364.278 318.772 362.038 321.012 362.038 323.775C362.038 326.537 364.278 328.777 367.041 328.777C369.803 328.777 372.043 326.537 372.043 323.775C372.043 321.012 369.803 318.772 367.041 318.772Z" fill="#FFA103"/>
<path d="M389.122 307.815C393.32 308.375 397.689 309.011 402.28 309.726C405.241 311.917 407.939 313.913 410.092 315.505C413.279 317.864 414.628 321.796 411.391 324.085C408.227 326.322 402.407 328.907 391.7 330.853C392.069 329.177 392.336 327.476 392.496 325.757C400.423 324.028 405.185 321.813 405.185 319.398C405.185 317.306 401.613 315.364 395.506 313.758L389.122 307.815ZM304.166 313.601C297.689 315.236 293.879 317.237 293.879 319.398C293.879 321.747 298.386 323.907 305.929 325.614C306.084 327.345 306.347 329.058 306.714 330.745C296.379 328.813 290.714 326.281 287.608 324.085C284.371 321.796 285.722 317.862 288.909 315.504L297.877 308.868C302.495 308.21 306.89 307.633 311.113 307.132L304.166 313.601ZM367.357 305.497C374.027 305.992 380.954 306.734 388.423 307.721L395.233 313.688C388.942 312.064 380.041 310.792 369.623 310.067L367.357 305.497ZM329.958 310.03C319.649 310.726 310.794 311.956 304.436 313.533L311.845 307.044C319.094 306.197 325.84 305.583 332.351 305.205L329.958 310.03ZM349.916 304.759C355.489 304.808 361.067 305.041 366.833 305.458L369.36 310.048C363.28 309.631 356.689 309.4 349.802 309.394L349.916 304.759ZM349.583 304.757L349.697 309.393C349.642 309.393 349.587 309.393 349.532 309.393C342.741 309.393 336.234 309.612 330.217 310.012L332.88 305.175C338.564 304.856 344.073 304.716 349.583 304.757ZM374.204 293.936C376.63 294.085 379.099 294.254 381.625 294.442C381.862 294.617 382.097 294.791 382.329 294.963C387.8 299.011 394.58 304.028 400.556 308.449C396.137 307.773 391.92 307.172 387.862 306.642L374.405 294.113L374.204 293.936ZM325.212 294.006L312.351 305.98C308.262 306.452 304.016 306.997 299.564 307.619L316.671 294.963L317.881 294.068C320.526 293.9 323.108 293.754 325.641 293.629L325.212 294.006ZM361.315 293.312C365.023 293.439 368.783 293.616 372.648 293.843L373.735 294.855L387.072 306.537C379.929 305.616 373.27 304.922 366.843 304.458L361.315 293.312ZM332.861 304.175C326.589 304.526 320.103 305.096 313.169 305.884L325.882 294.748L327.16 293.557C330.968 293.38 334.671 293.251 338.317 293.171L332.861 304.175ZM350.204 293.081C353.507 293.105 356.809 293.17 360.149 293.275L360.383 293.744L366.259 304.416C360.705 304.026 355.32 303.808 349.94 303.76L350.204 293.081ZM349.295 293.075L349.559 303.757C344.24 303.718 338.923 303.848 333.449 304.143L339.234 293.638L339.477 293.148C342.778 293.084 346.039 293.06 349.295 293.075ZM361.047 282.411C362.588 282.483 364.139 282.565 365.704 282.661C370.468 286.187 375.61 289.991 380.121 293.329C377.693 293.155 375.316 293 372.977 292.862L361.047 282.411ZM326.849 292.572C324.399 292.686 321.906 292.821 319.355 292.976L333.602 282.435C335.297 282.353 336.977 282.288 338.647 282.236L326.849 292.572ZM355.196 282.196C356.901 282.241 358.612 282.303 360.335 282.379L371.504 292.777C367.846 292.571 364.278 292.408 360.756 292.292L355.196 282.196ZM338.874 292.16C335.408 292.232 331.894 292.347 328.289 292.506L339.344 282.213C341.04 282.164 342.725 282.132 344.406 282.113L338.874 292.16ZM350.023 282.105C351.563 282.118 353.103 282.144 354.647 282.182L359.645 292.259C356.485 292.164 353.357 292.104 350.228 292.081L350.25 291.249L350.023 282.105ZM349.475 282.1L349.25 291.249L349.269 292.075C346.186 292.061 343.099 292.083 339.977 292.139L344.951 282.107C346.461 282.093 347.968 282.09 349.475 282.1ZM349.861 272.508C351.305 272.577 352.732 273.063 353.955 273.968C356.616 275.937 360.248 278.625 364.229 281.571C362.756 281.487 361.294 281.415 359.84 281.354L349.972 272.709L349.861 272.508ZM349.698 272.502L349.644 272.603L339.829 281.199C338.243 281.243 336.649 281.298 335.043 281.367L345.036 273.974C346.419 272.95 348.064 272.46 349.698 272.502ZM359.205 281.327C357.675 281.266 356.153 281.216 354.636 281.179L349.996 272.753L359.205 281.327ZM344.961 281.105C343.462 281.119 341.96 281.144 340.451 281.182L349.619 272.647L344.961 281.105ZM349.951 272.712L354.144 281.168C352.76 281.136 351.379 281.113 349.998 281.102L349.787 272.559L349.951 272.712ZM349.499 281.098C348.15 281.089 346.801 281.09 345.449 281.101L349.661 272.608L349.71 272.562L349.499 281.098ZM349.786 272.503C349.808 272.504 349.829 272.506 349.851 272.507L349.934 272.676L349.787 272.547L349.786 272.503ZM349.711 272.544L349.679 272.572L349.712 272.506L349.711 272.544Z" fill="#FFA103"/>
</g>
<path d="M458.967 350L436.599 279.92H450.711L469.239 340.592L465.207 338.672H475.575L471.447 340.592L488.535 279.92H502.167L481.431 350H458.967ZM513.101 350V297.872H526.445V350H513.101ZM505.805 307.856V297.872H526.445V307.856H505.805ZM517.997 291.632C515.373 291.632 513.421 290.96 512.141 289.616C510.925 288.208 510.317 286.48 510.317 284.432C510.317 282.256 510.925 280.496 512.141 279.152C513.421 277.808 515.373 277.136 517.997 277.136C520.621 277.136 522.541 277.808 523.757 279.152C524.973 280.496 525.581 282.256 525.581 284.432C525.581 286.48 524.973 288.208 523.757 289.616C522.541 290.96 520.621 291.632 517.997 291.632ZM541.824 350V297.872H552.384V320.24H551.424C551.424 314.928 552.128 310.512 553.536 306.992C554.944 303.408 557.024 300.72 559.776 298.928C562.592 297.136 566.08 296.24 570.24 296.24H570.816C577.024 296.24 581.728 298.256 584.928 302.288C588.128 306.256 589.728 312.208 589.728 320.144V350H576.384V318.992C576.384 315.792 575.456 313.2 573.6 311.216C571.808 309.232 569.312 308.24 566.112 308.24C562.848 308.24 560.192 309.264 558.144 311.312C556.16 313.296 555.168 315.984 555.168 319.376V350H541.824ZM635.658 350V334.544H633.45V317.36C633.45 314.352 632.714 312.112 631.242 310.64C629.77 309.168 627.498 308.432 624.426 308.432C622.826 308.432 620.906 308.464 618.666 308.528C616.426 308.592 614.154 308.688 611.85 308.816C609.61 308.88 607.594 308.976 605.802 309.104V297.776C607.274 297.648 608.938 297.52 610.794 297.392C612.65 297.264 614.538 297.2 616.458 297.2C618.442 297.136 620.298 297.104 622.026 297.104C627.402 297.104 631.85 297.808 635.37 299.216C638.954 300.624 641.642 302.832 643.434 305.84C645.29 308.848 646.218 312.784 646.218 317.648V350H635.658ZM618.858 351.344C615.082 351.344 611.754 350.672 608.874 349.328C606.058 347.984 603.85 346.064 602.25 343.568C600.714 341.072 599.946 338.064 599.946 334.544C599.946 330.704 600.874 327.568 602.73 325.136C604.65 322.704 607.306 320.88 610.698 319.664C614.154 318.448 618.186 317.84 622.794 317.84H634.89V325.808H622.602C619.53 325.808 617.162 326.576 615.498 328.112C613.898 329.584 613.098 331.504 613.098 333.872C613.098 336.24 613.898 338.16 615.498 339.632C617.162 341.104 619.53 341.84 622.602 341.84C624.458 341.84 626.154 341.52 627.69 340.88C629.29 340.176 630.602 339.024 631.626 337.424C632.714 335.76 633.322 333.52 633.45 330.704L636.714 334.448C636.394 338.096 635.498 341.168 634.026 343.664C632.618 346.16 630.634 348.08 628.074 349.424C625.578 350.704 622.506 351.344 618.858 351.344ZM679.423 351.632C672.255 351.632 666.623 350.128 662.527 347.12C658.495 344.048 656.383 339.824 656.191 334.448H668.191C668.383 336.24 669.375 337.872 671.167 339.344C672.959 340.816 675.775 341.552 679.615 341.552C682.815 341.552 685.343 340.976 687.199 339.824C689.119 338.672 690.079 337.104 690.079 335.12C690.079 333.392 689.343 332.016 687.871 330.992C686.463 329.968 684.031 329.296 680.575 328.976L675.967 328.496C670.143 327.856 665.663 326.192 662.527 323.504C659.391 320.816 657.823 317.232 657.823 312.752C657.823 309.168 658.719 306.16 660.511 303.728C662.303 301.296 664.767 299.472 667.903 298.256C671.103 296.976 674.751 296.336 678.847 296.336C685.247 296.336 690.431 297.744 694.399 300.56C698.367 303.376 700.447 307.504 700.639 312.944H688.639C688.511 311.152 687.615 309.616 685.951 308.336C684.287 307.056 681.887 306.416 678.751 306.416C675.935 306.416 673.759 306.96 672.223 308.048C670.687 309.136 669.919 310.544 669.919 312.272C669.919 313.936 670.527 315.216 671.743 316.112C673.023 317.008 675.071 317.616 677.887 317.936L682.495 318.416C688.639 319.056 693.439 320.752 696.895 323.504C700.415 326.256 702.175 329.968 702.175 334.64C702.175 338.096 701.215 341.104 699.295 343.664C697.439 346.16 694.815 348.112 691.423 349.52C688.031 350.928 684.031 351.632 679.423 351.632ZM730.586 350L740.474 299.6H755.834L767.258 350H756.698L745.082 299.888H750.65L740.378 350H730.586ZM726.65 350L726.554 339.056H737.21V350H726.65ZM721.274 350L707.066 297.872H720.026L733.562 350H721.274ZM760.058 350V339.056H770.714L770.618 350H760.058ZM764.282 350L776.282 297.872H788.378L775.802 350H764.282ZM829.814 350V334.544H827.606V317.36C827.606 314.352 826.87 312.112 825.398 310.64C823.926 309.168 821.654 308.432 818.582 308.432C816.982 308.432 815.062 308.464 812.822 308.528C810.582 308.592 808.31 308.688 806.006 308.816C803.766 308.88 801.75 308.976 799.958 309.104V297.776C801.43 297.648 803.094 297.52 804.95 297.392C806.806 297.264 808.694 297.2 810.614 297.2C812.598 297.136 814.454 297.104 816.182 297.104C821.558 297.104 826.006 297.808 829.526 299.216C833.11 300.624 835.798 302.832 837.59 305.84C839.446 308.848 840.374 312.784 840.374 317.648V350H829.814ZM813.014 351.344C809.238 351.344 805.91 350.672 803.03 349.328C800.214 347.984 798.006 346.064 796.406 343.568C794.87 341.072 794.102 338.064 794.102 334.544C794.102 330.704 795.03 327.568 796.886 325.136C798.806 322.704 801.462 320.88 804.854 319.664C808.31 318.448 812.342 317.84 816.95 317.84H829.046V325.808H816.758C813.686 325.808 811.318 326.576 809.654 328.112C808.054 329.584 807.254 331.504 807.254 333.872C807.254 336.24 808.054 338.16 809.654 339.632C811.318 341.104 813.686 341.84 816.758 341.84C818.614 341.84 820.31 341.52 821.846 340.88C823.446 340.176 824.758 339.024 825.782 337.424C826.87 335.76 827.478 333.52 827.606 330.704L830.87 334.448C830.55 338.096 829.654 341.168 828.182 343.664C826.774 346.16 824.79 348.08 822.23 349.424C819.734 350.704 816.662 351.344 813.014 351.344ZM854.667 369.2V297.872H865.227V320.336L863.595 320.24C863.851 314.928 864.939 310.48 866.859 306.896C868.843 303.312 871.467 300.656 874.731 298.928C877.995 297.136 881.643 296.24 885.675 296.24C889.387 296.24 892.715 296.912 895.659 298.256C898.667 299.6 901.227 301.488 903.339 303.92C905.515 306.352 907.179 309.2 908.331 312.464C909.483 315.664 910.059 319.12 910.059 322.832V324.848C910.059 328.624 909.483 332.144 908.331 335.408C907.243 338.608 905.611 341.456 903.435 343.952C901.323 346.384 898.763 348.304 895.755 349.712C892.747 351.056 889.387 351.728 885.675 351.728C881.771 351.728 878.187 350.928 874.923 349.328C871.723 347.664 869.131 345.136 867.147 341.744C865.163 338.288 864.043 333.84 863.787 328.4L868.011 334.832V369.2H854.667ZM882.315 340.496C885.195 340.496 887.691 339.792 889.803 338.384C891.979 336.976 893.675 335.024 894.891 332.528C896.107 329.968 896.715 327.088 896.715 323.888C896.715 320.56 896.107 317.68 894.891 315.248C893.675 312.816 891.979 310.928 889.803 309.584C887.691 308.176 885.195 307.472 882.315 307.472C879.691 307.472 877.259 308.048 875.019 309.2C872.843 310.352 871.051 312.048 869.643 314.288C868.299 316.528 867.627 319.216 867.627 322.352V326.192C867.627 329.2 868.331 331.76 869.739 333.872C871.147 335.984 872.971 337.616 875.211 338.768C877.451 339.92 879.819 340.496 882.315 340.496Z" fill="#FFA103"/>
<path d="M648.2 286L642.803 270.427H644.957L649.8 284.635L648.776 284.123H651.336L650.248 284.635L654.707 270.427H656.797L651.784 286H648.2ZM670.408 286V270.427H672.499V286H670.408ZM687.741 286V270.427H689.831V286H687.741ZM689.405 286V284.123H696.957V286H689.405ZM689.405 279.024V277.147H696.295V279.024H689.405ZM689.405 272.304V270.427H696.743V272.304H689.405ZM714.228 286V271.877H716.319V286H714.228ZM709.492 272.304V270.427H721.055V272.304H709.492ZM734.532 286V270.427H737.946L745.86 284.123H746.543L746.116 284.507V270.427H748.122V286H744.666L736.751 272.304H736.068L736.495 271.92V286H734.532ZM761.639 286L767.25 270.427H770.791L776.572 286H774.418L769.191 271.792L770.215 272.304H767.698L768.786 271.792L763.73 286H761.639ZM764.988 281.349L765.692 279.472H772.412L773.116 281.349H764.988ZM790.095 286V270.427H792.868L797.476 280.816H797.817L802.404 270.427H805.199V286H803.108V272.709L803.257 272.752L798.841 282.779H796.281L791.844 272.752L792.015 272.709V286H790.095ZM837.571 286.085V284.165H841.454C842.393 284.165 843.225 284.016 843.95 283.717C844.689 283.404 845.315 282.978 845.827 282.437C846.353 281.897 846.752 281.264 847.022 280.539C847.292 279.813 847.427 279.031 847.427 278.192C847.427 277.31 847.292 276.514 847.022 275.803C846.752 275.077 846.353 274.452 845.827 273.925C845.315 273.385 844.689 272.972 843.95 272.688C843.225 272.404 842.393 272.261 841.454 272.261H837.571V270.341H841.241C842.649 270.341 843.872 270.562 844.91 271.003C845.948 271.429 846.809 272.012 847.491 272.752C848.188 273.477 848.707 274.295 849.049 275.205C849.39 276.101 849.561 277.019 849.561 277.957V278.427C849.561 279.337 849.39 280.247 849.049 281.157C848.707 282.068 848.188 282.892 847.491 283.632C846.809 284.372 845.948 284.969 844.91 285.424C843.872 285.865 842.649 286.085 841.241 286.085H837.571ZM835.907 286.085V270.341H837.998V286.085H835.907ZM863.449 286V270.427H865.54V286H863.449ZM865.113 286V284.123H872.665V286H865.113ZM865.113 279.024V277.147H872.004V279.024H865.113ZM865.113 272.304V270.427H872.452V272.304H865.113ZM886.907 286V270.427H888.998V286H886.907ZM888.571 279.067V277.189L895.249 277.168V279.045L888.571 279.067ZM888.571 272.304V270.427H895.611V272.304H888.571ZM909.554 286V270.427H911.645V286H909.554Z" fill="#FFD7A0"/>
<defs>
<clipPath id="clip0_2295_4800">
<rect width="128" height="128" fill="white" transform="translate(285.25 251)"/>
</clipPath>
</defs>
</svg>
