<svg width="2120" height="512" viewBox="0 0 2120 512" fill="none" xmlns="http://www.w3.org/2000/svg">
<path d="M36.0626 392V99.4922H129.425L252.438 344.718H265.661L257.647 351.93V99.4922H311.341V392H217.578L94.5642 146.774H80.9405L88.9544 139.562V392H36.0626ZM483.715 399.613C464.481 399.613 447.519 396.541 432.826 390.397C418.134 384.253 405.713 375.972 395.562 365.554C385.411 354.869 377.664 342.848 372.321 329.491C367.246 316.135 364.708 302.244 364.708 287.819V279.405C364.708 264.445 367.379 250.287 372.722 236.931C378.332 223.307 386.212 211.286 396.363 200.868C406.781 190.183 419.336 181.902 434.029 176.025C448.721 169.881 465.283 166.809 483.715 166.809C502.147 166.809 518.709 169.881 533.401 176.025C548.093 181.902 560.515 190.183 570.666 200.868C581.084 211.286 588.964 223.307 594.307 236.931C599.649 250.287 602.321 264.445 602.321 279.405V287.819C602.321 302.244 599.649 316.135 594.307 329.491C589.231 342.848 581.618 354.869 571.467 365.554C561.316 375.972 548.895 384.253 534.202 390.397C519.51 396.541 502.681 399.613 483.715 399.613ZM483.715 351.93C497.338 351.93 508.825 348.992 518.175 343.115C527.524 336.971 534.603 328.824 539.411 318.673C544.22 308.255 546.624 296.501 546.624 283.411C546.624 270.055 544.086 258.301 539.011 248.15C534.202 237.732 526.99 229.585 517.373 223.708C508.024 217.564 496.804 214.492 483.715 214.492C470.625 214.492 459.272 217.564 449.656 223.708C440.306 229.585 433.094 237.732 428.018 248.15C422.943 258.301 420.405 270.055 420.405 283.411C420.405 296.501 422.809 308.255 427.617 318.673C432.693 328.824 439.905 336.971 449.255 343.115C458.605 348.992 470.091 351.93 483.715 351.93ZM653.895 392V99.4922H709.591V392H653.895ZM626.647 141.165V99.4922H709.591V141.165H626.647ZM905.006 392V327.488H895.79V255.763C895.79 243.208 892.718 233.859 886.574 227.715C880.43 221.571 870.946 218.499 858.124 218.499C851.446 218.499 843.432 218.632 834.082 218.899C824.733 219.167 815.25 219.567 805.633 220.102C796.283 220.369 787.869 220.769 780.389 221.304V174.022C786.533 173.487 793.479 172.953 801.225 172.419C808.972 171.885 816.853 171.617 824.866 171.617C833.147 171.35 840.894 171.217 848.107 171.217C870.546 171.217 889.111 174.155 903.803 180.032C918.763 185.909 929.982 195.125 937.462 207.68C945.209 220.235 949.082 236.664 949.082 256.966V392H905.006ZM834.884 397.61C819.123 397.61 805.232 394.805 793.211 389.195C781.458 383.585 772.242 375.571 765.563 365.153C759.152 354.735 755.947 342.18 755.947 327.488C755.947 311.46 759.82 298.371 767.567 288.22C775.581 278.069 786.667 270.456 800.825 265.38C815.25 260.305 832.079 257.767 851.312 257.767H901.8V291.025H850.511C837.689 291.025 827.805 294.23 820.859 300.641C814.181 306.785 810.842 314.799 810.842 324.683C810.842 334.567 814.181 342.581 820.859 348.725C827.805 354.869 837.689 357.941 850.511 357.941C858.258 357.941 865.337 356.605 871.748 353.934C878.426 350.995 883.902 346.187 888.176 339.509C892.718 332.563 895.255 323.214 895.79 311.46L909.413 327.087C908.078 342.314 904.338 355.136 898.194 365.554C892.317 375.972 884.036 383.986 873.351 389.596C862.933 394.938 850.11 397.61 834.884 397.61ZM1112.92 399.613C1087.01 399.613 1065.11 395.473 1047.21 387.192C1029.58 378.911 1016.09 367.558 1006.74 353.133C997.389 338.44 992.714 321.878 992.714 303.446H1048.41C1048.41 311.193 1050.55 318.806 1054.82 326.286C1059.1 333.498 1065.91 339.375 1075.26 343.917C1084.87 348.458 1097.43 350.728 1112.92 350.728C1126.81 350.728 1138.43 348.725 1147.78 344.718C1157.13 340.711 1164.08 335.502 1168.62 329.091C1173.16 322.413 1175.43 314.933 1175.43 306.652C1175.43 296.234 1171.02 287.953 1162.21 281.809C1153.39 275.398 1139.77 271.391 1121.34 269.788L1095.69 267.784C1067.64 265.38 1045.21 256.698 1028.38 241.739C1011.81 226.513 1003.53 206.478 1003.53 181.635C1003.53 162.936 1007.94 146.908 1016.76 133.551C1025.57 119.928 1037.86 109.51 1053.62 102.297C1069.65 94.8174 1088.35 91.0775 1109.72 91.0775C1131.89 91.0775 1150.99 94.9509 1167.02 102.698C1183.04 110.445 1195.47 121.397 1204.28 135.555C1213.1 149.446 1217.5 165.874 1217.5 184.84H1161.81C1161.81 176.826 1159.8 169.48 1155.8 162.802C1152.06 155.857 1146.31 150.381 1138.57 146.374C1131.09 142.099 1121.47 139.962 1109.72 139.962C1098.5 139.962 1089.15 141.832 1081.67 145.572C1074.19 149.312 1068.58 154.387 1064.84 160.799C1061.1 167.21 1059.23 174.155 1059.23 181.635C1059.23 190.717 1062.57 198.731 1069.25 205.677C1075.93 212.355 1086.48 216.228 1100.9 217.297L1126.55 219.701C1147.38 221.304 1165.68 225.711 1181.44 232.924C1197.2 240.136 1209.36 249.887 1217.91 262.175C1226.72 274.463 1231.13 289.288 1231.13 306.652C1231.13 325.084 1226.32 341.379 1216.7 355.537C1207.09 369.427 1193.33 380.246 1175.43 387.993C1157.8 395.74 1136.96 399.613 1112.92 399.613ZM1353.27 392L1394.54 181.635H1458.65L1506.34 392H1462.26L1413.78 182.837H1437.02L1394.14 392H1353.27ZM1336.84 392L1336.44 346.321H1380.92V392H1336.84ZM1314.4 392L1255.1 174.422H1309.19L1365.69 392H1314.4ZM1476.28 392V346.321H1520.76L1520.36 392H1476.28ZM1493.92 392L1544 174.422H1594.49L1542 392H1493.92ZM1767.44 392V327.488H1758.22V255.763C1758.22 243.208 1755.15 233.859 1749.01 227.715C1742.86 221.571 1733.38 218.499 1720.56 218.499C1713.88 218.499 1705.87 218.632 1696.52 218.899C1687.17 219.167 1677.68 219.567 1668.07 220.102C1658.72 220.369 1650.3 220.769 1642.82 221.304V174.022C1648.97 173.487 1655.91 172.953 1663.66 172.419C1671.41 171.885 1679.29 171.617 1687.3 171.617C1695.58 171.35 1703.33 171.217 1710.54 171.217C1732.98 171.217 1751.55 174.155 1766.24 180.032C1781.2 185.909 1792.42 195.125 1799.9 207.68C1807.64 220.235 1811.52 236.664 1811.52 256.966V392H1767.44ZM1697.32 397.61C1681.56 397.61 1667.67 394.805 1655.65 389.195C1643.89 383.585 1634.68 375.571 1628 365.153C1621.59 354.735 1618.38 342.18 1618.38 327.488C1618.38 311.46 1622.25 298.371 1630 288.22C1638.02 278.069 1649.1 270.456 1663.26 265.38C1677.68 260.305 1694.51 257.767 1713.75 257.767H1764.23V291.025H1712.95C1700.12 291.025 1690.24 294.23 1683.29 300.641C1676.62 306.785 1673.28 314.799 1673.28 324.683C1673.28 334.567 1676.62 342.581 1683.29 348.725C1690.24 354.869 1700.12 357.941 1712.95 357.941C1720.69 357.941 1727.77 356.605 1734.18 353.934C1740.86 350.995 1746.34 346.187 1750.61 339.509C1755.15 332.563 1757.69 323.214 1758.22 311.46L1771.85 327.087C1770.51 342.314 1766.77 355.136 1760.63 365.554C1754.75 375.972 1746.47 383.986 1735.79 389.596C1725.37 394.938 1712.55 397.61 1697.32 397.61ZM1871.18 472.139V174.422H1915.25V268.185L1908.44 267.784C1909.51 245.613 1914.05 227.047 1922.07 212.088C1930.35 197.128 1941.3 186.042 1954.92 178.83C1968.55 171.35 1983.77 167.61 2000.6 167.61C2016.09 167.61 2029.99 170.415 2042.27 176.025C2054.83 181.635 2065.51 189.515 2074.33 199.666C2083.41 209.817 2090.36 221.704 2095.17 235.328C2099.97 248.685 2102.38 263.11 2102.38 278.603V287.018C2102.38 302.778 2099.97 317.471 2095.17 331.094C2090.62 344.451 2083.81 356.338 2074.73 366.756C2065.91 376.907 2055.23 384.921 2042.67 390.798C2030.12 396.408 2016.09 399.213 2000.6 399.213C1984.31 399.213 1969.35 395.873 1955.72 389.195C1942.37 382.25 1931.55 371.698 1923.27 357.54C1914.99 343.115 1910.31 324.55 1909.24 301.843L1926.87 328.69V472.139H1871.18ZM1986.58 352.331C1998.6 352.331 2009.02 349.393 2017.83 343.516C2026.91 337.639 2033.99 329.491 2039.07 319.073C2044.14 308.388 2046.68 296.367 2046.68 283.011C2046.68 269.12 2044.14 257.099 2039.07 246.948C2033.99 236.797 2026.91 228.917 2017.83 223.307C2009.02 217.43 1998.6 214.492 1986.58 214.492C1975.62 214.492 1965.47 216.896 1956.12 221.704C1947.04 226.513 1939.56 233.592 1933.69 242.941C1928.08 252.291 1925.27 263.51 1925.27 276.6V292.627C1925.27 305.183 1928.21 315.868 1934.09 324.683C1939.96 333.498 1947.58 340.31 1956.93 345.119C1966.28 349.927 1976.16 352.331 1986.58 352.331Z" fill="#FFA103"/>
</svg>
