<svg width="2518" height="512" viewBox="0 0 2518 512" fill="none" xmlns="http://www.w3.org/2000/svg">
<g clip-path="url(#clip0_2295_4778)">
<path fill-rule="evenodd" clip-rule="evenodd" d="M256.581 253.994C305.59 253.994 350.9 256.842 387.672 261.666C399.871 263.267 411.114 270.62 414.36 282.487C415.859 287.968 416.661 293.492 416.661 299.016C416.66 361.547 340.372 424.078 256.581 424.078C172.789 424.078 96.5011 368.086 96.5006 299.016C96.5007 293.974 97.0469 289 98.0826 284.114C100.762 271.474 112.411 263.389 125.221 261.703C162.041 256.858 207.453 253.994 256.581 253.994ZM210.448 338.891C205.074 334.56 197.207 335.399 192.87 340.77C188.53 346.143 189.369 354.018 194.743 358.358L202.6 348.627C194.743 358.357 194.747 358.361 194.751 358.364L194.756 358.369C194.761 358.373 194.768 358.377 194.774 358.381C194.786 358.391 194.799 358.403 194.813 358.414C194.842 358.437 194.877 358.465 194.917 358.496C194.997 358.56 195.101 358.639 195.225 358.735C195.474 358.926 195.81 359.181 196.229 359.489C197.068 360.103 198.247 360.932 199.741 361.905C202.725 363.846 207.003 366.379 212.376 368.897C223.077 373.912 238.454 379.022 256.784 379.014C274.864 379.006 290.076 374.482 300.723 370.01C306.065 367.767 310.323 365.509 313.301 363.774C314.793 362.905 315.97 362.163 316.809 361.614C317.229 361.339 317.564 361.111 317.813 360.94C317.937 360.854 318.041 360.782 318.122 360.725C318.162 360.697 318.196 360.671 318.225 360.651C318.24 360.64 318.252 360.63 318.264 360.621C318.27 360.617 318.277 360.613 318.282 360.61L318.29 360.604C318.287 360.593 318.085 360.307 311.456 351.137L318.296 360.6C323.893 356.553 325.15 348.735 321.104 343.137C317.059 337.542 309.246 336.284 303.649 340.324L303.612 340.35C303.52 340.413 303.347 340.529 303.098 340.692C302.6 341.018 301.795 341.529 300.708 342.162C298.528 343.433 295.242 345.184 291.038 346.949C282.594 350.495 270.71 353.994 256.772 354C243.084 354.006 231.371 350.176 222.989 346.248C218.82 344.294 215.554 342.352 213.383 340.94C212.301 340.236 211.498 339.669 211.001 339.305C210.753 339.123 210.581 338.991 210.489 338.92L210.446 338.889L210.448 338.891ZM187.592 271.088C176.541 271.088 167.583 280.047 167.583 291.098C167.583 302.149 176.541 311.108 187.592 311.108C198.644 311.108 207.602 302.149 207.602 291.098C207.602 280.047 198.644 271.088 187.592 271.088ZM327.663 271.088C316.612 271.088 307.653 280.047 307.653 291.098C307.653 302.149 316.612 311.108 327.663 311.108C338.714 311.108 347.672 302.149 347.672 291.098C347.672 280.047 338.714 271.088 327.663 271.088Z" fill="#FFA103"/>
<path d="M415.975 227.246C432.77 229.49 450.254 232.039 468.623 234.9C480.467 243.664 491.257 251.648 499.866 258.018C512.615 267.451 518.012 283.182 505.063 292.339C492.411 301.286 469.135 311.629 426.314 319.411C427.79 312.709 428.855 305.902 429.495 299.025C461.198 292.11 480.24 283.25 480.24 273.589C480.239 265.22 465.95 257.453 441.519 251.03L415.975 227.246ZM76.1609 250.404C50.2536 256.945 35.0169 264.947 35.0164 273.589C35.0167 282.987 53.0374 291.627 83.2048 298.456C83.8252 305.379 84.8755 312.233 86.3425 318.981C45.0109 311.25 22.3539 301.121 9.93432 292.339C-3.0146 283.182 2.38737 267.447 15.1365 258.014L51.0164 231.464C69.4924 228.83 87.0751 226.514 103.97 224.511L76.1609 250.404ZM328.928 217.985C355.603 219.964 383.31 222.93 413.18 226.876L440.427 250.744C415.263 244.249 379.661 239.159 337.99 236.258L328.928 217.985ZM179.337 236.117C138.101 238.902 102.682 243.823 77.2517 250.131L106.89 224.167C135.883 220.778 162.869 218.325 188.908 216.815L179.337 236.117ZM259.165 215.035C281.456 215.23 303.767 216.162 326.832 217.832L336.938 236.186C312.618 234.518 286.254 233.594 258.707 233.571L259.165 215.035ZM191.027 216.695C213.763 215.418 235.796 214.861 257.834 215.025L258.291 233.57C258.07 233.57 257.849 233.569 257.629 233.569C230.466 233.569 204.439 234.445 180.372 236.046L191.027 216.695ZM356.308 171.739C366.012 172.336 375.891 173.01 385.997 173.762C386.945 174.464 387.885 175.16 388.815 175.848C410.696 192.038 437.811 212.101 461.71 229.784C444.03 227.078 427.162 224.667 410.926 222.545L357.123 172.451L356.308 171.739ZM160.346 172.024L108.917 219.907C92.5601 221.796 75.5723 223.982 57.7634 226.472L126.182 175.848L131.021 172.267C141.605 171.598 151.935 171.014 162.069 170.514L160.346 172.024ZM304.76 169.244C319.587 169.752 334.625 170.46 350.086 171.366L354.441 175.42L407.768 222.135C379.201 218.451 352.569 215.679 326.865 213.824L304.76 169.244ZM190.952 212.693C165.861 214.098 139.92 216.379 112.183 219.531L163.027 174.993L168.15 170.222C183.382 169.515 198.191 169.001 212.776 168.68L190.952 212.693ZM260.318 168.321C273.528 168.415 286.735 168.672 300.096 169.092L301.033 170.98L324.534 213.659C302.322 212.099 280.783 211.225 259.263 211.035L260.318 168.321ZM217.411 168.585C230.617 168.331 243.656 168.236 256.679 168.299L257.734 211.024C236.463 210.869 215.196 211.382 193.302 212.564L216.436 170.552L217.411 168.585ZM303.672 125.627C309.837 125.913 316.041 126.248 322.299 126.631C341.36 140.735 361.93 155.955 379.98 169.311C370.266 168.613 360.755 167.991 351.399 167.438L303.672 125.627ZM166.902 166.28C157.105 166.739 147.132 167.276 136.93 167.895L193.908 125.736C200.693 125.41 207.417 125.142 214.1 124.933L166.902 166.28ZM280.279 124.772C287.095 124.953 293.936 125.195 300.823 125.498L345.503 167.098C330.875 166.276 316.61 165.629 302.524 165.167L280.279 124.772ZM215.003 164.633C201.141 164.919 187.087 165.379 172.67 166.014L216.881 124.851C223.665 124.654 230.41 124.518 237.135 124.442L215.003 164.633ZM259.594 124.408C265.752 124.46 271.912 124.561 278.091 124.714L298.082 165.028C285.441 164.646 272.93 164.411 260.417 164.322L260.5 160.995L259.594 124.408ZM239.311 124.418C245.351 124.361 251.377 124.352 257.403 124.391L256.5 160.995L256.581 164.299C244.249 164.24 231.902 164.323 219.413 164.548L239.311 124.418ZM258.947 86.0316C264.72 86.3082 270.429 88.2518 275.32 91.8704C285.965 99.7468 300.492 110.496 316.415 122.278C310.522 121.945 304.674 121.656 298.856 121.409L259.39 86.8372L258.947 86.0316ZM239.645 91.8939C245.179 87.7993 251.761 85.8357 258.298 86.0072L258.075 86.4115L218.825 120.794C212.48 120.967 206.102 121.191 199.674 121.469L239.645 91.8939ZM296.319 121.305C290.2 121.059 284.114 120.862 278.045 120.713L259.487 87.013L296.319 121.305ZM239.35 120.416C233.355 120.473 227.346 120.577 221.308 120.729L257.979 86.5872L239.35 120.416ZM259.316 86.8529L276.083 120.665C270.544 120.539 265.019 120.454 259.496 120.408L258.651 86.2347L259.316 86.8529ZM257.502 120.392C252.105 120.356 246.709 120.359 241.303 120.401L258.149 86.4281L258.344 86.2464L257.502 120.392ZM258.646 86.0169C258.733 86.0202 258.82 86.0256 258.907 86.0296L259.245 86.7093L258.65 86.1888L258.646 86.0169ZM258.346 86.1751L258.22 86.2845L258.35 86.0247L258.346 86.1751Z" fill="#FFA103"/>
</g>
<path d="M695.369 397L605.897 116.68H662.345L736.457 359.368L720.329 351.688H761.801L745.289 359.368L813.641 116.68H868.169L785.225 397H695.369ZM911.903 397V188.488H965.279V397H911.903ZM882.719 228.424V188.488H965.279V228.424H882.719ZM931.487 163.528C920.991 163.528 913.183 160.84 908.063 155.464C903.199 149.832 900.767 142.92 900.767 134.728C900.767 126.024 903.199 118.984 908.063 113.608C913.183 108.232 920.991 105.544 931.487 105.544C941.983 105.544 949.663 108.232 954.527 113.608C959.391 118.984 961.823 126.024 961.823 134.728C961.823 142.92 959.391 149.832 954.527 155.464C949.663 160.84 941.983 163.528 931.487 163.528ZM1026.79 397V188.488H1069.03V277.96H1065.19C1065.19 256.712 1068.01 239.048 1073.64 224.968C1079.27 210.632 1087.59 199.88 1098.6 192.712C1109.87 185.544 1123.82 181.96 1140.46 181.96H1142.76C1167.59 181.96 1186.41 190.024 1199.21 206.152C1212.01 222.024 1218.41 245.832 1218.41 277.576V397H1165.03V272.968C1165.03 260.168 1161.32 249.8 1153.9 241.864C1146.73 233.928 1136.75 229.96 1123.95 229.96C1110.89 229.96 1100.27 234.056 1092.07 242.248C1084.14 250.184 1080.17 260.936 1080.17 274.504V397H1026.79ZM1402.13 397V335.176H1393.3V266.44C1393.3 254.408 1390.35 245.448 1384.47 239.56C1378.58 233.672 1369.49 230.728 1357.2 230.728C1350.8 230.728 1343.12 230.856 1334.16 231.112C1325.2 231.368 1316.11 231.752 1306.9 232.264C1297.94 232.52 1289.87 232.904 1282.71 233.416V188.104C1288.59 187.592 1295.25 187.08 1302.67 186.568C1310.1 186.056 1317.65 185.8 1325.33 185.8C1333.27 185.544 1340.69 185.416 1347.6 185.416C1369.11 185.416 1386.9 188.232 1400.98 193.864C1415.31 199.496 1426.07 208.328 1433.23 220.36C1440.66 232.392 1444.37 248.136 1444.37 267.592V397H1402.13ZM1334.93 402.376C1319.83 402.376 1306.51 399.688 1294.99 394.312C1283.73 388.936 1274.9 381.256 1268.5 371.272C1262.35 361.288 1259.28 349.256 1259.28 335.176C1259.28 319.816 1262.99 307.272 1270.42 297.544C1278.1 287.816 1288.72 280.52 1302.29 275.656C1316.11 270.792 1332.24 268.36 1350.67 268.36H1399.06V300.232H1349.91C1337.62 300.232 1328.15 303.304 1321.49 309.448C1315.09 315.336 1311.89 323.016 1311.89 332.488C1311.89 341.96 1315.09 349.64 1321.49 355.528C1328.15 361.416 1337.62 364.36 1349.91 364.36C1357.33 364.36 1364.11 363.08 1370.26 360.52C1376.66 357.704 1381.91 353.096 1386 346.696C1390.35 340.04 1392.79 331.08 1393.3 319.816L1406.35 334.792C1405.07 349.384 1401.49 361.672 1395.6 371.656C1389.97 381.64 1382.03 389.32 1371.79 394.696C1361.81 399.816 1349.52 402.376 1334.93 402.376ZM1577.19 403.528C1548.52 403.528 1525.99 397.512 1509.61 385.48C1493.48 373.192 1485.03 356.296 1484.26 334.792H1532.26C1533.03 341.96 1537 348.488 1544.17 354.376C1551.34 360.264 1562.6 363.208 1577.96 363.208C1590.76 363.208 1600.87 360.904 1608.3 356.296C1615.98 351.688 1619.82 345.416 1619.82 337.48C1619.82 330.568 1616.87 325.064 1610.98 320.968C1605.35 316.872 1595.62 314.184 1581.8 312.904L1563.37 310.984C1540.07 308.424 1522.15 301.768 1509.61 291.016C1497.06 280.264 1490.79 265.928 1490.79 248.008C1490.79 233.672 1494.38 221.64 1501.54 211.912C1508.71 202.184 1518.57 194.888 1531.11 190.024C1543.91 184.904 1558.5 182.344 1574.89 182.344C1600.49 182.344 1621.22 187.976 1637.1 199.24C1652.97 210.504 1661.29 227.016 1662.06 248.776H1614.06C1613.54 241.608 1609.96 235.464 1603.3 230.344C1596.65 225.224 1587.05 222.664 1574.5 222.664C1563.24 222.664 1554.54 224.84 1548.39 229.192C1542.25 233.544 1539.18 239.176 1539.18 246.088C1539.18 252.744 1541.61 257.864 1546.47 261.448C1551.59 265.032 1559.78 267.464 1571.05 268.744L1589.48 270.664C1614.06 273.224 1633.26 280.008 1647.08 291.016C1661.16 302.024 1668.2 316.872 1668.2 335.56C1668.2 349.384 1664.36 361.416 1656.68 371.656C1649.26 381.64 1638.76 389.448 1625.19 395.08C1611.62 400.712 1595.62 403.528 1577.19 403.528ZM1781.84 397L1821.4 195.4H1882.84L1928.53 397H1886.29L1839.83 196.552H1862.1L1821.01 397H1781.84ZM1766.1 397L1765.72 353.224H1808.34V397H1766.1ZM1744.6 397L1687.76 188.488H1739.6L1793.75 397H1744.6ZM1899.73 397V353.224H1942.36L1941.97 397H1899.73ZM1916.63 397L1964.63 188.488H2013.01L1962.71 397H1916.63ZM2178.76 397V335.176H2169.92V266.44C2169.92 254.408 2166.98 245.448 2161.09 239.56C2155.2 233.672 2146.12 230.728 2133.83 230.728C2127.43 230.728 2119.75 230.856 2110.79 231.112C2101.83 231.368 2092.74 231.752 2083.52 232.264C2074.56 232.52 2066.5 232.904 2059.33 233.416V188.104C2065.22 187.592 2071.88 187.08 2079.3 186.568C2086.72 186.056 2094.28 185.8 2101.96 185.8C2109.89 185.544 2117.32 185.416 2124.23 185.416C2145.73 185.416 2163.52 188.232 2177.6 193.864C2191.94 199.496 2202.69 208.328 2209.86 220.36C2217.28 232.392 2221 248.136 2221 267.592V397H2178.76ZM2111.56 402.376C2096.45 402.376 2083.14 399.688 2071.62 394.312C2060.36 388.936 2051.52 381.256 2045.12 371.272C2038.98 361.288 2035.91 349.256 2035.91 335.176C2035.91 319.816 2039.62 307.272 2047.04 297.544C2054.72 287.816 2065.35 280.52 2078.92 275.656C2092.74 270.792 2108.87 268.36 2127.3 268.36H2175.68V300.232H2126.53C2114.24 300.232 2104.77 303.304 2098.12 309.448C2091.72 315.336 2088.52 323.016 2088.52 332.488C2088.52 341.96 2091.72 349.64 2098.12 355.528C2104.77 361.416 2114.24 364.36 2126.53 364.36C2133.96 364.36 2140.74 363.08 2146.88 360.52C2153.28 357.704 2158.53 353.096 2162.63 346.696C2166.98 340.04 2169.41 331.08 2169.92 319.816L2182.98 334.792C2181.7 349.384 2178.12 361.672 2172.23 371.656C2166.6 381.64 2158.66 389.32 2148.42 394.696C2138.44 399.816 2126.15 402.376 2111.56 402.376ZM2278.17 473.8V188.488H2320.41V278.344L2313.88 277.96C2314.91 256.712 2319.26 238.92 2326.94 224.584C2334.87 210.248 2345.37 199.624 2358.43 192.712C2371.48 185.544 2386.07 181.96 2402.2 181.96C2417.05 181.96 2430.36 184.648 2442.14 190.024C2454.17 195.4 2464.41 202.952 2472.86 212.68C2481.56 222.408 2488.22 233.8 2492.83 246.856C2497.43 259.656 2499.74 273.48 2499.74 288.328V296.392C2499.74 311.496 2497.43 325.576 2492.83 338.632C2488.47 351.432 2481.95 362.824 2473.24 372.808C2464.79 382.536 2454.55 390.216 2442.52 395.848C2430.49 401.224 2417.05 403.912 2402.2 403.912C2386.59 403.912 2372.25 400.712 2359.19 394.312C2346.39 387.656 2336.03 377.544 2328.09 363.976C2320.15 350.152 2315.67 332.36 2314.65 310.6L2331.55 336.328V473.8H2278.17ZM2388.76 358.984C2400.28 358.984 2410.27 356.168 2418.71 350.536C2427.42 344.904 2434.2 337.096 2439.07 327.112C2443.93 316.872 2446.36 305.352 2446.36 292.552C2446.36 279.24 2443.93 267.72 2439.07 257.992C2434.2 248.264 2427.42 240.712 2418.71 235.336C2410.27 229.704 2400.28 226.888 2388.76 226.888C2378.27 226.888 2368.54 229.192 2359.58 233.8C2350.87 238.408 2343.71 245.192 2338.07 254.152C2332.7 263.112 2330.01 273.864 2330.01 286.408V301.768C2330.01 313.8 2332.83 324.04 2338.46 332.488C2344.09 340.936 2351.39 347.464 2360.35 352.072C2369.31 356.68 2378.78 358.984 2388.76 358.984Z" fill="#FFA103"/>
<path d="M1452.8 141L1431.21 78.7067H1439.83L1459.2 135.539L1455.1 133.491H1465.34L1460.99 135.539L1478.83 78.7067H1487.19L1467.14 141H1452.8ZM1541.63 141V78.7067H1550V141H1541.63ZM1610.96 141V78.7067H1619.32V141H1610.96ZM1617.62 141V133.491H1647.83V141H1617.62ZM1617.62 113.096V105.587H1645.18V113.096H1617.62ZM1617.62 86.216V78.7067H1646.97V86.216H1617.62ZM1716.91 141V84.5093H1725.28V141H1716.91ZM1697.97 86.216V78.7067H1744.22V86.216H1697.97ZM1798.13 141V78.7067H1811.78L1843.44 133.491H1846.17L1844.46 135.027V78.7067H1852.49V141H1838.66L1807 86.216H1804.27L1805.98 84.68V141H1798.13ZM1906.56 141L1929 78.7067H1943.16L1966.29 141H1957.67L1936.76 84.168L1940.86 86.216H1930.79L1935.14 84.168L1914.92 141H1906.56ZM1919.95 122.397L1922.77 114.888H1949.65L1952.47 122.397H1919.95ZM2020.38 141V78.7067H2031.47L2049.9 120.264H2051.27L2069.62 78.7067H2080.79V141H2072.43V87.8373L2073.03 88.008L2055.37 128.115H2045.13L2027.38 88.008L2028.06 87.8373V141H2020.38ZM2210.28 141.341V133.661H2225.82C2229.57 133.661 2232.9 133.064 2235.8 131.869C2238.76 130.618 2241.26 128.911 2243.31 126.749C2245.41 124.588 2247.01 122.056 2248.09 119.155C2249.17 116.253 2249.71 113.124 2249.71 109.768C2249.71 106.241 2249.17 103.055 2248.09 100.211C2247.01 97.3093 2245.41 94.8062 2243.31 92.7013C2241.26 90.5396 2238.76 88.8898 2235.8 87.752C2232.9 86.6142 2229.57 86.0453 2225.82 86.0453H2210.28V78.3653H2224.96C2230.59 78.3653 2235.49 79.2471 2239.64 81.0107C2243.79 82.7173 2247.23 85.0498 2249.96 88.008C2252.75 90.9093 2254.83 94.1804 2256.19 97.8213C2257.56 101.405 2258.24 105.075 2258.24 108.829V110.707C2258.24 114.348 2257.56 117.988 2256.19 121.629C2254.83 125.27 2252.75 128.57 2249.96 131.528C2247.23 134.486 2243.79 136.876 2239.64 138.696C2235.49 140.46 2230.59 141.341 2224.96 141.341H2210.28ZM2203.63 141.341V78.3653H2211.99V141.341H2203.63ZM2313.8 141V78.7067H2322.16V141H2313.8ZM2320.45 141V133.491H2350.66V141H2320.45ZM2320.45 113.096V105.587H2348.01V113.096H2320.45ZM2320.45 86.216V78.7067H2349.81V86.216H2320.45ZM2407.63 141V78.7067H2415.99V141H2407.63ZM2414.28 113.267V105.757L2440.99 105.672V113.181L2414.28 113.267ZM2414.28 86.216V78.7067H2442.44V86.216H2414.28ZM2498.22 141V78.7067H2506.58V141H2498.22Z" fill="#FFD7A0"/>
<defs>
<clipPath id="clip0_2295_4778">
<rect width="512" height="512" fill="white" transform="translate(0.499878)"/>
</clipPath>
</defs>
</svg>
