<svg width="512" height="512" viewBox="0 0 512 512" fill="none" xmlns="http://www.w3.org/2000/svg">
<rect width="512" height="512" fill="#8B2121"/>
<path d="M242.832 127.796C251.12 121.664 262.416 121.646 270.703 127.778C291.438 143.12 331.027 172.412 359.371 193.385C386.869 213.731 424.947 241.907 446.129 257.581C456.089 264.95 460.307 277.24 450.191 284.394C440.306 291.384 422.121 299.462 388.667 305.542C389.82 300.306 390.653 294.989 391.153 289.617C415.92 284.214 430.797 277.293 430.797 269.746C430.797 252.478 352.932 238.48 256.881 238.48C160.83 238.48 82.9661 252.478 82.9661 269.746C82.9666 277.088 97.045 283.836 120.613 289.171C121.097 294.58 121.918 299.934 123.064 305.206C90.7739 299.166 73.0731 291.255 63.3704 284.394C53.254 277.24 57.4746 264.948 67.4348 257.578L154.19 193.385L242.832 127.796Z" fill="#FFA103"/>
<path d="M256.063 254.437C294.352 254.437 329.751 256.662 358.479 260.431C368.009 261.682 376.793 267.426 379.329 276.697C380.5 280.979 381.126 285.294 381.126 289.61C381.125 338.462 321.525 387.315 256.063 387.315C190.601 387.315 131.001 343.571 131.001 289.61C131.001 285.671 131.428 281.785 132.237 277.967C134.331 268.093 143.432 261.777 153.439 260.459C182.205 256.674 217.682 254.437 256.063 254.437ZM220.022 320.762C215.824 317.378 209.677 318.034 206.289 322.23C202.899 326.428 203.555 332.581 207.753 335.971L213.891 328.369C207.918 335.766 207.76 335.968 207.758 335.975L207.763 335.98C207.767 335.983 207.773 335.985 207.777 335.989C207.786 335.996 207.796 336.006 207.807 336.015C207.83 336.033 207.857 336.055 207.888 336.08C207.951 336.129 208.033 336.191 208.13 336.265C208.324 336.415 208.586 336.614 208.914 336.854C209.569 337.334 210.49 337.982 211.657 338.742C213.988 340.259 217.331 342.238 221.528 344.205C229.889 348.122 241.902 352.115 256.222 352.109C270.347 352.102 282.231 348.568 290.549 345.075C294.722 343.322 298.05 341.558 300.377 340.202C301.541 339.523 302.462 338.944 303.117 338.514C303.444 338.299 303.707 338.122 303.901 337.988C303.998 337.921 304.079 337.864 304.142 337.82C304.173 337.798 304.201 337.778 304.223 337.762C304.235 337.754 304.244 337.746 304.254 337.74C304.258 337.736 304.263 337.733 304.267 337.73L304.273 337.726C304.271 337.717 304.113 337.494 298.934 330.33L304.278 337.722C308.651 334.561 309.633 328.453 306.472 324.08C303.312 319.708 297.208 318.726 292.836 321.882L292.405 322.169C292.015 322.425 291.387 322.823 290.538 323.318C288.835 324.31 286.267 325.679 282.983 327.058C276.387 329.828 267.102 332.562 256.213 332.567C245.519 332.572 236.369 329.579 229.82 326.51C226.563 324.984 224.011 323.466 222.315 322.363C221.47 321.813 220.842 321.37 220.454 321.085C220.26 320.944 220.126 320.841 220.054 320.786L220.02 320.761L220.022 320.762ZM202.166 267.792C193.532 267.792 186.534 274.791 186.534 283.424C186.534 292.058 193.532 299.057 202.166 299.057C210.799 299.057 217.798 292.058 217.799 283.424C217.798 274.791 210.799 267.792 202.166 267.792ZM311.596 267.792C302.963 267.792 295.964 274.791 295.964 283.424C295.964 292.058 302.963 299.057 311.596 299.057C320.23 299.057 327.229 292.058 327.229 283.424C327.229 274.791 320.23 267.792 311.596 267.792Z" fill="#FFA103"/>
</svg>
