<svg width="2665" height="512" viewBox="0 0 2665 512" fill="none" xmlns="http://www.w3.org/2000/svg">
<g clip-path="url(#clip0_2295_4778)">
<path fill-rule="evenodd" clip-rule="evenodd" d="M256.581 253.994C305.59 253.994 350.9 256.842 387.673 261.666C399.871 263.267 411.114 270.62 414.36 282.487C415.859 287.968 416.661 293.492 416.661 299.016C416.66 361.547 340.372 424.078 256.581 424.078C172.789 424.078 96.5013 368.086 96.5007 299.016C96.5008 293.974 97.047 289 98.0828 284.114C100.762 271.474 112.411 263.389 125.221 261.703C162.041 256.858 207.453 253.994 256.581 253.994ZM210.448 338.891C205.075 334.56 197.207 335.399 192.87 340.77C188.531 346.143 189.369 354.018 194.743 358.358L202.6 348.627C194.743 358.357 194.747 358.361 194.751 358.364L194.757 358.369C194.762 358.373 194.769 358.377 194.774 358.381C194.786 358.391 194.799 358.403 194.813 358.414C194.842 358.437 194.877 358.465 194.917 358.496C194.997 358.56 195.101 358.639 195.225 358.735C195.474 358.926 195.81 359.181 196.229 359.489C197.068 360.103 198.247 360.932 199.741 361.905C202.725 363.846 207.003 366.379 212.376 368.897C223.077 373.912 238.454 379.022 256.784 379.014C274.864 379.006 290.076 374.482 300.723 370.01C306.065 367.767 310.323 365.509 313.302 363.774C314.793 362.905 315.97 362.163 316.809 361.614C317.229 361.339 317.565 361.111 317.813 360.94C317.938 360.854 318.041 360.782 318.122 360.725C318.162 360.697 318.196 360.671 318.225 360.651C318.24 360.64 318.253 360.63 318.264 360.621C318.27 360.617 318.277 360.613 318.282 360.61L318.29 360.604C318.287 360.593 318.085 360.307 311.456 351.137L318.296 360.6C323.893 356.553 325.15 348.735 321.104 343.137C317.059 337.542 309.246 336.284 303.649 340.324L303.612 340.35C303.52 340.413 303.347 340.529 303.098 340.692C302.6 341.018 301.795 341.529 300.708 342.162C298.528 343.433 295.242 345.184 291.038 346.949C282.595 350.495 270.711 353.994 256.772 354C243.084 354.006 231.371 350.176 222.989 346.248C218.82 344.294 215.555 342.352 213.384 340.94C212.301 340.236 211.498 339.669 211.001 339.305C210.753 339.123 210.581 338.991 210.489 338.92L210.446 338.889L210.448 338.891ZM187.593 271.088C176.542 271.088 167.583 280.047 167.583 291.098C167.583 302.149 176.541 311.108 187.593 311.108C198.644 311.108 207.602 302.149 207.602 291.098C207.602 280.047 198.644 271.088 187.593 271.088ZM327.663 271.088C316.612 271.088 307.653 280.047 307.653 291.098C307.653 302.149 316.612 311.108 327.663 311.108C338.714 311.108 347.673 302.149 347.673 291.098C347.672 280.047 338.714 271.088 327.663 271.088Z" fill="#FFA103"/>
<path d="M415.975 227.246C432.77 229.49 450.254 232.039 468.623 234.9C480.467 243.664 491.257 251.648 499.866 258.018C512.615 267.451 518.012 283.182 505.063 292.339C492.411 301.286 469.135 311.629 426.314 319.411C427.79 312.709 428.855 305.902 429.495 299.025C461.198 292.11 480.24 283.25 480.24 273.589C480.24 265.22 465.95 257.453 441.519 251.03L415.975 227.246ZM76.161 250.404C50.2537 256.945 35.017 264.947 35.0165 273.589C35.0168 282.987 53.0376 291.627 83.2049 298.456C83.8254 305.379 84.8756 312.233 86.3426 318.981C45.011 311.25 22.3541 301.121 9.93444 292.339C-3.01448 283.182 2.38749 267.447 15.1366 258.014L51.0165 231.464C69.4925 228.83 87.0752 226.514 103.971 224.511L76.161 250.404ZM328.929 217.985C355.603 219.964 383.311 222.93 413.181 226.876L440.428 250.744C415.263 244.249 379.661 239.159 337.99 236.258L328.929 217.985ZM179.337 236.117C138.101 238.902 102.682 243.823 77.2518 250.131L106.89 224.167C135.884 220.778 162.87 218.325 188.908 216.815L179.337 236.117ZM259.165 215.035C281.456 215.23 303.767 216.162 326.832 217.832L336.938 236.186C312.618 234.518 286.254 233.594 258.707 233.571L259.165 215.035ZM191.027 216.695C213.763 215.418 235.796 214.861 257.834 215.025L258.291 233.57C258.07 233.57 257.85 233.569 257.629 233.569C230.466 233.569 204.439 234.445 180.372 236.046L191.027 216.695ZM356.308 171.739C366.012 172.336 375.891 173.01 385.997 173.762C386.945 174.464 387.885 175.16 388.815 175.848C410.696 192.038 437.811 212.101 461.71 229.785C444.03 227.078 427.162 224.667 410.926 222.545L357.123 172.451L356.308 171.739ZM160.347 172.024L108.917 219.907C92.5602 221.796 75.5724 223.982 57.7635 226.472L126.182 175.848L131.021 172.267C141.605 171.598 151.935 171.014 162.069 170.514L160.347 172.024ZM304.76 169.244C319.587 169.752 334.625 170.46 350.086 171.366L354.441 175.42L407.768 222.135C379.201 218.451 352.569 215.679 326.865 213.824L304.76 169.244ZM190.952 212.693C165.861 214.098 139.92 216.379 112.183 219.531L163.027 174.993L168.15 170.222C183.382 169.515 198.191 169.001 212.776 168.68L190.952 212.693ZM260.318 168.321C273.528 168.415 286.735 168.672 300.097 169.092L301.033 170.98L324.534 213.659C302.322 212.099 280.783 211.225 259.264 211.035L260.318 168.321ZM217.411 168.585C230.617 168.331 243.657 168.236 256.68 168.299L257.734 211.024C236.463 210.868 215.196 211.382 193.302 212.564L216.436 170.552L217.411 168.585ZM303.672 125.627C309.837 125.913 316.041 126.248 322.299 126.631C341.36 140.735 361.93 155.955 379.98 169.311C370.267 168.613 360.755 167.991 351.399 167.438L303.672 125.627ZM166.902 166.28C157.105 166.739 147.132 167.276 136.931 167.895L193.908 125.736C200.693 125.41 207.418 125.142 214.1 124.933L166.902 166.28ZM280.279 124.772C287.095 124.953 293.936 125.195 300.823 125.498L345.503 167.098C330.875 166.276 316.61 165.629 302.524 165.167L280.279 124.772ZM215.003 164.633C201.141 164.919 187.087 165.379 172.67 166.014L216.881 124.851C223.665 124.654 230.41 124.518 237.135 124.442L215.003 164.633ZM259.595 124.408C265.752 124.46 271.912 124.561 278.091 124.714L298.082 165.028C285.441 164.646 272.93 164.411 260.417 164.322L260.5 160.995L259.595 124.408ZM239.311 124.418C245.351 124.361 251.377 124.352 257.403 124.391L256.5 160.995L256.581 164.299C244.249 164.24 231.902 164.323 219.413 164.548L239.311 124.418ZM258.947 86.0316C264.72 86.3082 270.43 88.2518 275.32 91.8704C285.965 99.7468 300.492 110.496 316.415 122.278C310.522 121.945 304.674 121.656 298.856 121.41L259.391 86.8372L258.947 86.0316ZM239.645 91.8939C245.179 87.7993 251.761 85.8357 258.298 86.0072L258.075 86.4115L218.825 120.794C212.48 120.967 206.102 121.191 199.674 121.469L239.645 91.8939ZM296.319 121.305C290.2 121.059 284.114 120.862 278.045 120.713L259.487 87.013L296.319 121.305ZM239.35 120.416C233.355 120.473 227.346 120.577 221.308 120.729L257.979 86.5872L239.35 120.416ZM259.316 86.8529L276.083 120.665C270.544 120.539 265.019 120.454 259.496 120.408L258.651 86.2347L259.316 86.8529ZM257.502 120.392C252.105 120.356 246.709 120.359 241.304 120.401L258.149 86.4281L258.345 86.2464L257.502 120.392ZM258.646 86.0169C258.733 86.0202 258.82 86.0256 258.907 86.0296L259.245 86.7093L258.65 86.1888L258.646 86.0169ZM258.347 86.1751L258.221 86.2845L258.35 86.0247L258.347 86.1751Z" fill="#FFA103"/>
</g>
<path d="M632.393 397V116.68H721.865L839.753 351.688H852.425L844.745 358.6V116.68H896.201V397H806.345L688.457 161.992H675.401L683.081 155.08V397H632.393ZM1061.39 404.296C1042.96 404.296 1026.71 401.352 1012.63 395.464C998.545 389.576 986.641 381.64 976.913 371.656C967.185 361.416 959.761 349.896 954.641 337.096C949.777 324.296 947.345 310.984 947.345 297.16V289.096C947.345 274.76 949.905 261.192 955.025 248.392C960.401 235.336 967.953 223.816 977.681 213.832C987.665 203.592 999.697 195.656 1013.78 190.024C1027.86 184.136 1043.73 181.192 1061.39 181.192C1079.06 181.192 1094.93 184.136 1109.01 190.024C1123.09 195.656 1134.99 203.592 1144.72 213.832C1154.71 223.816 1162.26 235.336 1167.38 248.392C1172.5 261.192 1175.06 274.76 1175.06 289.096V297.16C1175.06 310.984 1172.5 324.296 1167.38 337.096C1162.51 349.896 1155.22 361.416 1145.49 371.656C1135.76 381.64 1123.86 389.576 1109.78 395.464C1095.7 401.352 1079.57 404.296 1061.39 404.296ZM1061.39 358.6C1074.45 358.6 1085.46 355.784 1094.42 350.152C1103.38 344.264 1110.16 336.456 1114.77 326.728C1119.38 316.744 1121.68 305.48 1121.68 292.936C1121.68 280.136 1119.25 268.872 1114.39 259.144C1109.78 249.16 1102.87 241.352 1093.65 235.72C1084.69 229.832 1073.94 226.888 1061.39 226.888C1048.85 226.888 1037.97 229.832 1028.75 235.72C1019.79 241.352 1012.88 249.16 1008.02 259.144C1003.15 268.872 1000.72 280.136 1000.72 292.936C1000.72 305.48 1003.03 316.744 1007.63 326.728C1012.5 336.456 1019.41 344.264 1028.37 350.152C1037.33 355.784 1048.34 358.6 1061.39 358.6ZM1224.48 397V116.68H1277.86V397H1224.48ZM1198.37 156.616V116.68H1277.86V156.616H1198.37ZM1439.02 404.296C1420.59 404.296 1404.33 401.352 1390.25 395.464C1376.17 389.576 1364.27 381.64 1354.54 371.656C1344.81 361.416 1337.39 349.896 1332.27 337.096C1327.4 324.296 1324.97 310.984 1324.97 297.16V289.096C1324.97 274.76 1327.53 261.192 1332.65 248.392C1338.03 235.336 1345.58 223.816 1355.31 213.832C1365.29 203.592 1377.32 195.656 1391.4 190.024C1405.48 184.136 1421.35 181.192 1439.02 181.192C1456.68 181.192 1472.55 184.136 1486.63 190.024C1500.71 195.656 1512.62 203.592 1522.35 213.832C1532.33 223.816 1539.88 235.336 1545 248.392C1550.12 261.192 1552.68 274.76 1552.68 289.096V297.16C1552.68 310.984 1550.12 324.296 1545 337.096C1540.14 349.896 1532.84 361.416 1523.11 371.656C1513.39 381.64 1501.48 389.576 1487.4 395.464C1473.32 401.352 1457.19 404.296 1439.02 404.296ZM1439.02 358.6C1452.07 358.6 1463.08 355.784 1472.04 350.152C1481 344.264 1487.79 336.456 1492.39 326.728C1497 316.744 1499.31 305.48 1499.31 292.936C1499.31 280.136 1496.87 268.872 1492.01 259.144C1487.4 249.16 1480.49 241.352 1471.27 235.72C1462.31 229.832 1451.56 226.888 1439.02 226.888C1426.47 226.888 1415.59 229.832 1406.38 235.72C1397.42 241.352 1390.51 249.16 1385.64 259.144C1380.78 268.872 1378.35 280.136 1378.35 292.936C1378.35 305.48 1380.65 316.744 1385.26 326.728C1390.12 336.456 1397.03 344.264 1405.99 350.152C1414.95 355.784 1425.96 358.6 1439.02 358.6ZM1699.26 404.296C1674.43 404.296 1653.44 400.328 1636.28 392.392C1619.39 384.456 1606.46 373.576 1597.5 359.752C1588.54 345.672 1584.06 329.8 1584.06 312.136H1637.44C1637.44 319.56 1639.48 326.856 1643.58 334.024C1647.68 340.936 1654.2 346.568 1663.16 350.92C1672.38 355.272 1684.41 357.448 1699.26 357.448C1712.57 357.448 1723.71 355.528 1732.67 351.688C1741.63 347.848 1748.28 342.856 1752.64 336.712C1756.99 330.312 1759.16 323.144 1759.16 315.208C1759.16 305.224 1754.94 297.288 1746.49 291.4C1738.04 285.256 1724.99 281.416 1707.32 279.88L1682.75 277.96C1655.87 275.656 1634.36 267.336 1618.24 253C1602.36 238.408 1594.43 219.208 1594.43 195.4C1594.43 177.48 1598.65 162.12 1607.1 149.32C1615.55 136.264 1627.32 126.28 1642.43 119.368C1657.79 112.2 1675.71 108.616 1696.19 108.616C1717.44 108.616 1735.74 112.328 1751.1 119.752C1766.46 127.176 1778.36 137.672 1786.81 151.24C1795.26 164.552 1799.48 180.296 1799.48 198.472H1746.11C1746.11 190.792 1744.19 183.752 1740.35 177.352C1736.76 170.696 1731.26 165.448 1723.84 161.608C1716.67 157.512 1707.45 155.464 1696.19 155.464C1685.44 155.464 1676.48 157.256 1669.31 160.84C1662.14 164.424 1656.76 169.288 1653.18 175.432C1649.6 181.576 1647.8 188.232 1647.8 195.4C1647.8 204.104 1651 211.784 1657.4 218.44C1663.8 224.84 1673.92 228.552 1687.74 229.576L1712.32 231.88C1732.28 233.416 1749.82 237.64 1764.92 244.552C1780.03 251.464 1791.68 260.808 1799.87 272.584C1808.32 284.36 1812.54 298.568 1812.54 315.208C1812.54 332.872 1807.93 348.488 1798.72 362.056C1789.5 375.368 1776.32 385.736 1759.16 393.16C1742.27 400.584 1722.3 404.296 1699.26 404.296ZM1929.59 397L1969.15 195.4H2030.59L2076.28 397H2034.04L1987.58 196.552H2009.85L1968.76 397H1929.59ZM1913.85 397L1913.47 353.224H1956.09V397H1913.85ZM1892.35 397L1835.51 188.488H1887.35L1941.5 397H1892.35ZM2047.48 397V353.224H2090.11L2089.72 397H2047.48ZM2064.38 397L2112.38 188.488H2160.76L2110.46 397H2064.38ZM2326.51 397V335.176H2317.67V266.44C2317.67 254.408 2314.73 245.448 2308.84 239.56C2302.95 233.672 2293.87 230.728 2281.58 230.728C2275.18 230.728 2267.5 230.856 2258.54 231.112C2249.58 231.368 2240.49 231.752 2231.27 232.264C2222.31 232.52 2214.25 232.904 2207.08 233.416V188.104C2212.97 187.592 2219.63 187.08 2227.05 186.568C2234.47 186.056 2242.03 185.8 2249.71 185.8C2257.64 185.544 2265.07 185.416 2271.98 185.416C2293.48 185.416 2311.27 188.232 2325.35 193.864C2339.69 199.496 2350.44 208.328 2357.61 220.36C2365.03 232.392 2368.75 248.136 2368.75 267.592V397H2326.51ZM2259.31 402.376C2244.2 402.376 2230.89 399.688 2219.37 394.312C2208.11 388.936 2199.27 381.256 2192.87 371.272C2186.73 361.288 2183.66 349.256 2183.66 335.176C2183.66 319.816 2187.37 307.272 2194.79 297.544C2202.47 287.816 2213.1 280.52 2226.67 275.656C2240.49 270.792 2256.62 268.36 2275.05 268.36H2323.43V300.232H2274.28C2261.99 300.232 2252.52 303.304 2245.87 309.448C2239.47 315.336 2236.27 323.016 2236.27 332.488C2236.27 341.96 2239.47 349.64 2245.87 355.528C2252.52 361.416 2261.99 364.36 2274.28 364.36C2281.71 364.36 2288.49 363.08 2294.63 360.52C2301.03 357.704 2306.28 353.096 2310.38 346.696C2314.73 340.04 2317.16 331.08 2317.67 319.816L2330.73 334.792C2329.45 349.384 2325.87 361.672 2319.98 371.656C2314.35 381.64 2306.41 389.32 2296.17 394.696C2286.19 399.816 2273.9 402.376 2259.31 402.376ZM2425.92 473.8V188.488H2468.16V278.344L2461.63 277.96C2462.66 256.712 2467.01 238.92 2474.69 224.584C2482.62 210.248 2493.12 199.624 2506.18 192.712C2519.23 185.544 2533.82 181.96 2549.95 181.96C2564.8 181.96 2578.11 184.648 2589.89 190.024C2601.92 195.4 2612.16 202.952 2620.61 212.68C2629.31 222.408 2635.97 233.8 2640.58 246.856C2645.18 259.656 2647.49 273.48 2647.49 288.328V296.392C2647.49 311.496 2645.18 325.576 2640.58 338.632C2636.22 351.432 2629.7 362.824 2620.99 372.808C2612.54 382.536 2602.3 390.216 2590.27 395.848C2578.24 401.224 2564.8 403.912 2549.95 403.912C2534.34 403.912 2520 400.712 2506.94 394.312C2494.14 387.656 2483.78 377.544 2475.84 363.976C2467.9 350.152 2463.42 332.36 2462.4 310.6L2479.3 336.328V473.8H2425.92ZM2536.51 358.984C2548.03 358.984 2558.02 356.168 2566.46 350.536C2575.17 344.904 2581.95 337.096 2586.82 327.112C2591.68 316.872 2594.11 305.352 2594.11 292.552C2594.11 279.24 2591.68 267.72 2586.82 257.992C2581.95 248.264 2575.17 240.712 2566.46 235.336C2558.02 229.704 2548.03 226.888 2536.51 226.888C2526.02 226.888 2516.29 229.192 2507.33 233.8C2498.62 238.408 2491.46 245.192 2485.82 254.152C2480.45 263.112 2477.76 273.864 2477.76 286.408V301.768C2477.76 313.8 2480.58 324.04 2486.21 332.488C2491.84 340.936 2499.14 347.464 2508.1 352.072C2517.06 356.68 2526.53 358.984 2536.51 358.984Z" fill="#FFA103"/>
<path d="M1526.8 93L1505.21 30.7067H1513.83L1533.2 87.5387L1529.1 85.4907H1539.34L1534.99 87.5387L1552.83 30.7067H1561.19L1541.14 93H1526.8ZM1615.63 93V30.7067H1624V93H1615.63ZM1684.96 93V30.7067H1693.32V93H1684.96ZM1691.62 93V85.4907H1721.83V93H1691.62ZM1691.62 65.096V57.5867H1719.18V65.096H1691.62ZM1691.62 38.216V30.7067H1720.97V38.216H1691.62ZM1790.91 93V36.5093H1799.28V93H1790.91ZM1771.97 38.216V30.7067H1818.22V38.216H1771.97ZM1872.13 93V30.7067H1885.78L1917.44 85.4907H1920.17L1918.46 87.0267V30.7067H1926.49V93H1912.66L1881 38.216H1878.27L1879.98 36.68V93H1872.13ZM1980.56 93L2003 30.7067H2017.16L2040.29 93H2031.67L2010.76 36.168L2014.86 38.216H2004.79L2009.14 36.168L1988.92 93H1980.56ZM1993.95 74.3973L1996.77 66.888H2023.65L2026.47 74.3973H1993.95ZM2094.38 93V30.7067H2105.47L2123.9 72.264H2125.27L2143.62 30.7067H2154.79V93H2146.43V39.8373L2147.03 40.008L2129.37 80.1147H2119.13L2101.38 40.008L2102.06 39.8373V93H2094.38ZM2284.28 93.3413V85.6613H2299.82C2303.57 85.6613 2306.9 85.064 2309.8 83.8693C2312.76 82.6178 2315.26 80.9111 2317.31 78.7493C2319.41 76.5876 2321.01 74.056 2322.09 71.1547C2323.17 68.2533 2323.71 65.1244 2323.71 61.768C2323.71 58.2409 2323.17 55.0551 2322.09 52.2107C2321.01 49.3093 2319.41 46.8062 2317.31 44.7013C2315.26 42.5396 2312.76 40.8898 2309.8 39.752C2306.9 38.6142 2303.57 38.0453 2299.82 38.0453H2284.28V30.3653H2298.96C2304.59 30.3653 2309.49 31.2471 2313.64 33.0107C2317.79 34.7173 2321.23 37.0498 2323.96 40.008C2326.75 42.9093 2328.83 46.1804 2330.19 49.8213C2331.56 53.4053 2332.24 57.0747 2332.24 60.8293V62.7067C2332.24 66.3476 2331.56 69.9884 2330.19 73.6293C2328.83 77.2702 2326.75 80.5698 2323.96 83.528C2321.23 86.4862 2317.79 88.8756 2313.64 90.696C2309.49 92.4596 2304.59 93.3413 2298.96 93.3413H2284.28ZM2277.63 93.3413V30.3653H2285.99V93.3413H2277.63ZM2387.8 93V30.7067H2396.16V93H2387.8ZM2394.45 93V85.4907H2424.66V93H2394.45ZM2394.45 65.096V57.5867H2422.01V65.096H2394.45ZM2394.45 38.216V30.7067H2423.81V38.216H2394.45ZM2481.63 93V30.7067H2489.99V93H2481.63ZM2488.28 65.2667V57.7573L2514.99 57.672V65.1813L2488.28 65.2667ZM2488.28 38.216V30.7067H2516.44V38.216H2488.28ZM2572.22 93V30.7067H2580.58V93H2572.22Z" fill="#FFD7A0"/>
<defs>
<clipPath id="clip0_2295_4778">
<rect width="512" height="512" fill="white" transform="translate(0.5)"/>
</clipPath>
</defs>
</svg>
