<svg width="512" height="512" viewBox="0 0 512 512" fill="none" xmlns="http://www.w3.org/2000/svg">
<path fill-rule="evenodd" clip-rule="evenodd" d="M256.081 253.995C305.09 253.995 350.4 256.842 387.173 261.666C399.371 263.267 410.614 270.62 413.86 282.487C415.359 287.968 416.161 293.492 416.161 299.016C416.16 361.547 339.872 424.078 256.081 424.078C172.289 424.078 96.0013 368.086 96.0007 299.016C96.0008 293.974 96.547 289 97.5828 284.114C100.262 271.474 111.911 263.389 124.721 261.703C161.541 256.858 206.953 253.995 256.081 253.995ZM209.948 338.891C204.575 334.56 196.707 335.399 192.37 340.77C188.031 346.144 188.869 354.018 194.243 358.358L202.1 348.627C194.243 358.357 194.247 358.361 194.251 358.364L194.257 358.37C194.262 358.373 194.269 358.377 194.274 358.381C194.286 358.391 194.299 358.403 194.313 358.414C194.342 358.438 194.377 358.465 194.417 358.496C194.497 358.56 194.601 358.639 194.725 358.735C194.974 358.926 195.31 359.182 195.729 359.489C196.568 360.103 197.747 360.933 199.241 361.905C202.225 363.847 206.503 366.379 211.876 368.897C222.577 373.912 237.954 379.022 256.284 379.014C274.364 379.006 289.576 374.482 300.223 370.01C305.565 367.767 309.823 365.509 312.802 363.774C314.293 362.905 315.47 362.163 316.309 361.614C316.729 361.339 317.065 361.111 317.313 360.94C317.438 360.854 317.541 360.782 317.622 360.725C317.662 360.697 317.696 360.672 317.725 360.651C317.74 360.64 317.753 360.63 317.764 360.621C317.77 360.617 317.777 360.613 317.782 360.61L317.79 360.604C317.787 360.593 317.585 360.307 310.956 351.137L317.796 360.6C323.393 356.554 324.65 348.735 320.604 343.137C316.559 337.542 308.746 336.284 303.149 340.325L303.112 340.35C303.02 340.413 302.847 340.529 302.598 340.692C302.1 341.019 301.295 341.529 300.208 342.162C298.028 343.433 294.742 345.184 290.538 346.95C282.095 350.496 270.211 353.994 256.272 354C242.584 354.006 230.871 350.177 222.489 346.248C218.32 344.295 215.055 342.353 212.884 340.94C211.801 340.236 210.998 339.669 210.501 339.305C210.253 339.123 210.081 338.991 209.989 338.92L209.946 338.889L209.948 338.891ZM187.093 271.088C176.042 271.088 167.083 280.047 167.083 291.098C167.083 302.149 176.041 311.108 187.093 311.108C198.144 311.108 207.102 302.149 207.102 291.098C207.102 280.047 198.144 271.088 187.093 271.088ZM327.163 271.088C316.112 271.088 307.153 280.047 307.153 291.098C307.153 302.149 316.112 311.108 327.163 311.108C338.214 311.108 347.173 302.149 347.173 291.098C347.172 280.047 338.214 271.088 327.163 271.088Z" fill="white"/>
<path d="M415.475 227.247C432.27 229.49 449.754 232.04 468.123 234.9C479.967 243.664 490.757 251.648 499.366 258.018C512.115 267.452 517.512 283.182 504.563 292.339C491.911 301.286 468.635 311.629 425.814 319.412C427.29 312.709 428.355 305.902 428.995 299.025C460.698 292.11 479.74 283.25 479.74 273.589C479.74 265.221 465.45 257.453 441.019 251.03L415.475 227.247ZM75.661 250.404C49.7537 256.945 34.517 264.947 34.5165 273.589C34.5168 282.987 52.5376 291.627 82.7049 298.456C83.3254 305.38 84.3756 312.233 85.8426 318.981C44.511 311.251 21.8541 301.122 9.43444 292.339C-3.51448 283.182 1.88749 267.448 14.6366 258.014L50.5165 231.464C68.9925 228.83 86.5752 226.514 103.471 224.511L75.661 250.404ZM328.429 217.985C355.103 219.964 382.811 222.93 412.681 226.876L439.928 250.745C414.763 244.249 379.161 239.159 337.49 236.258L328.429 217.985ZM178.837 236.117C137.601 238.902 102.182 243.823 76.7518 250.131L106.39 224.167C135.384 220.778 162.37 218.325 188.408 216.815L178.837 236.117ZM258.665 215.036C280.956 215.231 303.267 216.162 326.332 217.832L336.438 236.186C312.118 234.518 285.754 233.594 258.207 233.571L258.665 215.036ZM190.527 216.695C213.263 215.418 235.296 214.861 257.334 215.025L257.791 233.57C257.57 233.57 257.35 233.569 257.129 233.569C229.966 233.569 203.939 234.445 179.872 236.046L190.527 216.695ZM355.808 171.739C365.512 172.336 375.391 173.01 385.497 173.762C386.445 174.464 387.385 175.16 388.315 175.848C410.196 192.038 437.311 212.101 461.21 229.785C443.53 227.078 426.662 224.667 410.426 222.545L356.623 172.452L355.808 171.739ZM159.847 172.024L108.417 219.907C92.0602 221.796 75.0724 223.982 57.2635 226.472L125.682 175.848L130.521 172.267C141.105 171.598 151.435 171.015 161.569 170.514L159.847 172.024ZM304.26 169.245C319.087 169.752 334.125 170.46 349.586 171.366L353.941 175.42L407.268 222.135C378.701 218.451 352.069 215.679 326.365 213.824L304.26 169.245ZM190.452 212.693C165.361 214.099 139.42 216.379 111.683 219.531L162.527 174.993L167.65 170.222C182.882 169.515 197.691 169.001 212.276 168.68L190.452 212.693ZM259.818 168.321C273.028 168.415 286.235 168.672 299.597 169.092L300.533 170.98L324.034 213.659C301.822 212.1 280.283 211.225 258.764 211.036L259.818 168.321ZM216.911 168.585C230.117 168.331 243.157 168.236 256.18 168.299L257.234 211.024C235.963 210.869 214.696 211.382 192.802 212.564L215.936 170.552L216.911 168.585ZM303.172 125.627C309.337 125.914 315.541 126.248 321.799 126.631C340.86 140.735 361.43 155.955 379.48 169.311C369.767 168.613 360.255 167.991 350.899 167.438L303.172 125.627ZM166.402 166.28C156.605 166.74 146.632 167.276 136.431 167.895L193.408 125.736C200.193 125.41 206.918 125.142 213.6 124.933L166.402 166.28ZM279.779 124.772C286.595 124.953 293.436 125.195 300.323 125.498L345.003 167.098C330.375 166.276 316.11 165.63 302.024 165.167L279.779 124.772ZM214.503 164.633C200.641 164.92 186.587 165.379 172.17 166.014L216.381 124.851C223.165 124.654 229.91 124.519 236.635 124.442L214.503 164.633ZM259.095 124.408C265.252 124.46 271.412 124.562 277.591 124.714L297.582 165.028C284.941 164.646 272.43 164.411 259.917 164.322L260 160.996L259.095 124.408ZM238.811 124.418C244.851 124.361 250.877 124.352 256.903 124.391L256 160.996L256.081 164.299C243.749 164.24 231.402 164.323 218.913 164.548L238.811 124.418ZM258.447 86.0317C264.22 86.3083 269.93 88.2519 274.82 91.8706C285.465 99.7469 299.992 110.496 315.915 122.278C310.022 121.945 304.174 121.656 298.356 121.41L258.891 86.8374L258.447 86.0317ZM239.145 91.894C244.679 87.7994 251.261 85.8358 257.798 86.0073L257.575 86.4116L218.325 120.794C211.98 120.967 205.602 121.192 199.174 121.469L239.145 91.894ZM295.819 121.305C289.7 121.059 283.614 120.863 277.545 120.713L258.987 87.0131L295.819 121.305ZM238.85 120.416C232.855 120.473 226.846 120.577 220.808 120.729L257.479 86.5874L238.85 120.416ZM258.816 86.853L275.583 120.665C270.044 120.539 264.519 120.454 258.996 120.408L258.151 86.2348L258.816 86.853ZM257.002 120.392C251.605 120.357 246.209 120.359 240.804 120.401L257.649 86.4282L257.845 86.2465L257.002 120.392ZM258.146 86.017C258.233 86.0203 258.32 86.0257 258.407 86.0297L258.745 86.7094L258.15 86.1889L258.146 86.017ZM257.847 86.1752L257.721 86.2846L257.85 86.0249L257.847 86.1752Z" fill="white"/>
</svg>
