<svg width="512" height="512" viewBox="0 0 512 512" fill="none" xmlns="http://www.w3.org/2000/svg">
<rect width="512" height="512" fill="url(#paint0_radial_2295_4801)"/>
<path fill-rule="evenodd" clip-rule="evenodd" d="M256.063 254.433C294.351 254.433 329.75 256.658 358.479 260.427C368.009 261.677 376.792 267.422 379.328 276.693C380.499 280.975 381.126 285.29 381.126 289.606C381.125 338.459 321.525 387.311 256.063 387.311C190.601 387.311 131.001 343.567 131.001 289.606C131.001 285.667 131.427 281.781 132.237 277.964C134.33 268.089 143.431 261.773 153.439 260.456C182.204 256.67 217.682 254.433 256.063 254.433ZM220.022 320.759C215.824 317.375 209.677 318.031 206.289 322.227C202.899 326.425 203.554 332.577 207.752 335.967L213.891 328.365C207.752 335.967 207.756 335.969 207.758 335.972L207.763 335.976C207.767 335.979 207.772 335.982 207.777 335.985C207.786 335.993 207.796 336.002 207.807 336.011C207.83 336.029 207.857 336.051 207.888 336.075C207.951 336.125 208.032 336.187 208.129 336.262C208.323 336.411 208.586 336.611 208.913 336.851C209.569 337.33 210.49 337.979 211.657 338.738C213.988 340.255 217.331 342.234 221.528 344.201C229.888 348.119 241.902 352.111 256.222 352.105C270.347 352.098 282.231 348.564 290.549 345.07C294.722 343.318 298.049 341.554 300.376 340.198C301.541 339.519 302.461 338.94 303.117 338.511C303.444 338.296 303.707 338.118 303.901 337.984C303.998 337.917 304.079 337.861 304.142 337.816C304.173 337.794 304.2 337.775 304.223 337.758C304.234 337.75 304.244 337.742 304.253 337.736C304.258 337.732 304.263 337.729 304.267 337.726L304.273 337.722C304.271 337.713 304.113 337.49 298.934 330.326L304.278 337.719C308.651 334.557 309.633 328.449 306.472 324.076C303.312 319.705 297.208 318.722 292.835 321.879L292.806 321.898C292.735 321.948 292.599 322.038 292.405 322.165C292.015 322.421 291.387 322.819 290.537 323.314C288.834 324.307 286.267 325.675 282.983 327.054C276.386 329.825 267.102 332.558 256.213 332.563C245.518 332.568 236.368 329.575 229.82 326.507C226.562 324.98 224.011 323.463 222.315 322.359C221.47 321.809 220.842 321.367 220.454 321.082C220.26 320.94 220.126 320.837 220.054 320.781L220.02 320.757L220.022 320.759ZM202.166 267.788C193.532 267.788 186.534 274.787 186.533 283.42C186.533 292.054 193.532 299.053 202.166 299.053C210.8 299.053 217.799 292.054 217.799 283.42C217.799 274.787 210.8 267.788 202.166 267.788ZM311.596 267.788C302.962 267.788 295.963 274.787 295.963 283.42C295.963 292.054 302.962 299.053 311.596 299.053C320.23 299.053 327.229 292.054 327.229 283.42C327.228 274.787 320.23 267.788 311.596 267.788Z" fill="#FFA103"/>
<path d="M380.589 233.536C393.71 235.289 407.369 237.281 421.72 239.516C430.973 246.363 439.403 252.6 446.129 257.577C456.089 264.947 460.306 277.237 450.19 284.391C440.305 291.38 422.12 299.458 388.667 305.538C389.82 300.303 390.652 294.985 391.152 289.613C415.919 284.211 430.795 277.289 430.796 269.742C430.796 263.204 419.632 257.135 400.545 252.116L380.589 233.536ZM115.11 251.627C94.8688 256.738 82.9652 262.991 82.9652 269.742C82.966 277.084 97.0447 283.833 120.613 289.168C121.097 294.576 121.918 299.931 123.064 305.202C90.7745 299.163 73.0734 291.252 63.3704 284.391C53.2537 277.237 57.4745 264.944 67.4349 257.574L95.4671 236.831C109.901 234.773 123.637 232.963 136.836 231.398L115.11 251.627ZM312.586 226.304C333.425 227.85 355.071 230.164 378.406 233.247L399.692 251.894C380.032 246.819 352.218 242.844 319.663 240.577L312.586 226.304ZM195.715 240.467C163.498 242.643 135.826 246.489 115.958 251.418L139.118 231.13C161.768 228.482 182.85 226.568 203.192 225.389L195.715 240.467ZM258.081 223.996C275.496 224.148 292.927 224.878 310.947 226.183L318.843 240.521C299.843 239.219 279.245 238.496 257.724 238.478L258.081 223.996ZM257.041 223.989L257.399 238.478C257.226 238.477 257.054 238.477 256.881 238.477C235.66 238.477 215.326 239.161 196.524 240.412L204.848 225.294C222.611 224.297 239.824 223.861 257.041 223.989ZM333.979 190.174C341.558 190.64 349.275 191.165 357.168 191.752C357.909 192.3 358.644 192.844 359.37 193.382C376.464 206.03 397.648 221.704 416.319 235.52C402.507 233.405 389.329 231.521 376.645 229.863L334.612 190.728L333.979 190.174ZM180.879 190.394L140.701 227.802C127.922 229.278 114.651 230.987 100.738 232.932L154.19 193.382L157.969 190.584C166.237 190.061 174.307 189.607 182.223 189.216L180.879 190.394ZM293.702 188.223C305.287 188.619 317.036 189.173 329.117 189.881L332.517 193.047L374.179 229.544C351.861 226.666 331.055 224.503 310.974 223.054L293.702 188.223ZM204.789 222.168C185.188 223.266 164.922 225.045 143.253 227.508L182.974 192.713L186.973 188.988C198.874 188.436 210.444 188.033 221.84 187.782L204.789 222.168ZM258.983 187.502C269.303 187.575 279.622 187.777 290.061 188.105L290.791 189.578L309.152 222.922C291.798 221.704 274.971 221.02 258.159 220.872L258.983 187.502ZM256.14 187.485L256.964 220.864C240.346 220.743 223.731 221.143 206.625 222.066L224.7 189.244L225.459 187.71C235.777 187.511 245.965 187.436 256.14 187.485ZM292.854 154.147C297.67 154.371 302.517 154.632 307.406 154.932C322.297 165.95 338.367 177.841 352.468 188.274C344.88 187.729 337.449 187.243 330.14 186.811L292.854 154.147ZM186.001 185.905C178.348 186.264 170.556 186.684 162.586 187.168L207.097 154.233C212.398 153.979 217.651 153.77 222.872 153.606L186.001 185.905ZM274.577 153.479C279.903 153.62 285.248 153.81 290.628 154.047L325.534 186.545C314.106 185.902 302.961 185.399 291.956 185.038L274.577 153.479ZM223.58 184.619C212.749 184.843 201.769 185.206 190.503 185.702L225.045 153.542C230.346 153.388 235.615 153.282 240.868 153.222L223.58 184.619ZM258.417 153.194C263.228 153.235 268.04 153.314 272.867 153.434L288.487 184.931C278.61 184.632 268.836 184.447 259.06 184.377L259.124 181.777L258.417 153.194ZM242.569 153.204C247.288 153.159 251.996 153.151 256.704 153.182L255.999 181.777L256.063 184.359C246.428 184.313 236.781 184.379 227.024 184.555L242.569 153.204ZM257.911 123.212C262.421 123.428 266.882 124.947 270.702 127.774C279.019 133.928 290.369 142.325 302.809 151.53C298.206 151.27 293.637 151.045 289.092 150.853L258.259 123.843L257.911 123.212ZM242.832 127.793C247.156 124.594 252.297 123.06 257.404 123.193L257.23 123.51L226.564 150.373C221.607 150.508 216.624 150.683 211.602 150.9L242.832 127.793ZM287.11 150.77C282.329 150.578 277.574 150.424 272.832 150.308L258.334 123.979L287.11 150.77ZM242.6 150.077C237.916 150.121 233.22 150.203 228.503 150.321L257.154 123.647L242.6 150.077ZM258.201 123.855L271.299 150.27C266.972 150.172 262.655 150.105 258.34 150.069L257.681 123.371L258.201 123.855ZM256.782 150.057C252.565 150.029 248.349 150.032 244.125 150.064L257.286 123.523L257.44 123.381L256.782 150.057ZM257.676 123.201C257.744 123.204 257.813 123.208 257.881 123.211L258.145 123.743L257.68 123.335L257.676 123.201ZM257.441 123.324L257.342 123.411L257.445 123.206L257.441 123.324Z" fill="#FFA103"/>
<defs>
<radialGradient id="paint0_radial_2295_4801" cx="0" cy="0" r="1" gradientUnits="userSpaceOnUse" gradientTransform="translate(256.505 3.35007e-05) rotate(90.0565) scale(512 579.135)">
<stop stop-color="#FFA103"/>
<stop offset="0.413462" stop-color="#BC2D29"/>
<stop offset="1" stop-color="#450E14"/>
</radialGradient>
</defs>
</svg>
