<svg width="64" height="64" viewBox="0 0 64 64" fill="none" xmlns="http://www.w3.org/2000/svg">
<g clip-path="url(#clip0_2003_717)">
<path d="M63.2373 32.5986C63.2373 29.9765 63.0246 28.0631 62.5641 26.0789H32.6229V37.9135H50.1977C49.8435 40.8546 47.9301 45.2837 43.678 48.26L43.6184 48.6562L53.0853 55.9901L53.7412 56.0555C59.7647 50.4924 63.2373 42.3073 63.2373 32.5986Z" fill="#4285F4"/>
<path d="M32.6229 63.7797C41.2331 63.7797 48.4615 60.9449 53.7412 56.0552L43.6781 48.2597C40.9852 50.1377 37.3709 51.4487 32.6229 51.4487C24.1898 51.4487 17.0323 45.8858 14.4809 38.1968L14.1069 38.2285L4.2631 45.8467L4.13437 46.2046C9.37846 56.6219 20.1502 63.7797 32.6229 63.7797Z" fill="#34A853"/>
<path d="M14.4808 38.1979C13.8076 36.2137 13.418 34.0875 13.418 31.8908C13.418 29.6938 13.8076 27.5678 14.4454 25.5836L14.4276 25.161L4.46045 17.4204L4.13435 17.5755C1.973 21.8985 0.732819 26.7529 0.732819 31.8908C0.732819 37.0286 1.973 41.8828 4.13435 46.2058L14.4808 38.1979Z" fill="#FBBC05"/>
<path d="M32.6229 12.3307C38.6111 12.3307 42.6504 14.9174 44.9537 17.079L53.9537 8.29142C48.4263 3.15359 41.2331 0 32.6229 0C20.1502 0 9.37846 7.1575 4.13437 17.5748L14.4455 25.5829C17.0323 17.8939 24.1898 12.3307 32.6229 12.3307Z" fill="#EB4335"/>
</g>
<defs>
<clipPath id="clip0_2003_717">
<rect width="64" height="64" fill="white"/>
</clipPath>
</defs>
</svg>
