<svg width="64" height="64" viewBox="0 0 64 64" fill="none" xmlns="http://www.w3.org/2000/svg">
<path d="M0 12C0 5.37258 5.37258 0 12 0H52C58.6274 0 64 5.37258 64 12V52C64 58.6274 58.6274 64 52 64H12C5.37258 64 0 58.6274 0 52V12Z" fill="#271917"/>
<path d="M4 13C4 8.58172 7.58172 5 12 5H52C56.4183 5 60 8.58172 60 13V45C60 49.4183 56.4183 53 52 53H12C7.58172 53 4 49.4183 4 45V13Z" fill="#FFDA9D"/>
<path d="M4 30C4 25.5817 7.58172 22 12 22H52C56.4183 22 60 25.5817 60 30V52C60 56.4183 56.4183 60 52 60H12C7.58172 60 4 56.4183 4 52V30Z" fill="#F5EACE"/>
<path d="M4 46C4 41.5817 7.58172 38 12 38H52C56.4183 38 60 41.5817 60 46V60H4V46Z" fill="#271917"/>
<path d="M57.3918 9.01161L52.7185 12.4824L53.5829 10.4346L57.3918 9.01161Z" fill="#E2761B"/>
<path d="M46.6035 9.01161L51.2392 12.5152L50.4171 10.4346L46.6035 9.01161Z" fill="#E4761B"/>
<path d="M55.7103 17.057L54.4657 18.964L57.1288 19.6965L57.8944 17.0993L55.7103 17.057Z" fill="#E4761B"/>
<path d="M46.1104 17.0993L46.8712 19.6965L49.5343 18.964L48.2897 17.057L46.1104 17.0993Z" fill="#E4761B"/>
<path d="M49.384 13.8347L48.6418 14.9574L51.286 15.0748L51.1922 12.2333L49.384 13.8347Z" fill="#E4761B"/>
<path d="M54.6112 13.8353L52.7797 12.2011L52.7185 15.0754L55.3582 14.958L54.6112 13.8353Z" fill="#E4761B"/>
<path d="M49.5343 18.964L51.1218 18.189L49.7503 17.1181L49.5343 18.964Z" fill="#E4761B"/>
<path d="M52.8735 18.189L54.4657 18.964L54.245 17.1181L52.8735 18.189Z" fill="#E4761B"/>
<path d="M54.4657 18.964L52.8735 18.189L53.0004 19.2269L52.9862 19.6636L54.4657 18.964Z" fill="#D7C1B3"/>
<path d="M49.5343 18.964L51.0138 19.6636L51.0044 19.2269L51.1218 18.189L49.5343 18.964Z" fill="#D7C1B3"/>
<path d="M51.0372 16.4325L49.7127 16.0426L50.6473 15.6151L51.0372 16.4325Z" fill="#233447"/>
<path d="M52.9581 16.4325L53.348 15.6151L54.2873 16.0426L52.9581 16.4325Z" fill="#233447"/>
<path d="M49.5343 18.964L49.7598 17.057L48.2897 17.0993L49.5343 18.964Z" fill="#CD6116"/>
<path d="M54.2402 17.057L54.4657 18.964L55.7103 17.0993L54.2402 17.057Z" fill="#CD6116"/>
<path d="M55.3582 14.958L52.7185 15.0754L52.9628 16.4326L53.3527 15.6153L54.292 16.0428L55.3582 14.958Z" fill="#CD6116"/>
<path d="M49.7127 16.0426L50.652 15.6153L51.0372 16.4325L51.286 15.0748L48.6418 14.9574L49.7127 16.0426Z" fill="#CD6116"/>
<path d="M48.6418 14.9574L49.7503 17.1181L49.7127 16.0426L48.6418 14.9574Z" fill="#E4751F"/>
<path d="M54.292 16.0428L54.245 17.1181L55.3582 14.958L54.292 16.0428Z" fill="#E4751F"/>
<path d="M51.286 15.0748L51.0372 16.4325L51.3472 18.0338L51.4176 15.9251L51.286 15.0748Z" fill="#E4751F"/>
<path d="M52.7185 15.0754L52.5918 15.9203L52.6481 18.0338L52.9628 16.4326L52.7185 15.0754Z" fill="#E4751F"/>
<path d="M52.9628 16.4326L52.6481 18.0338L52.8735 18.189L54.245 17.1181L54.292 16.0428L52.9628 16.4326Z" fill="#F6851B"/>
<path d="M49.7127 16.0426L49.7503 17.1181L51.1218 18.189L51.3472 18.0338L51.0372 16.4325L49.7127 16.0426Z" fill="#F6851B"/>
<path d="M52.9862 19.6636L53.0004 19.2269L52.8829 19.1233H51.1123L51.0044 19.2269L51.0138 19.6636L49.5343 18.964L50.0509 19.3863L51.0982 20.1143H52.8971L53.9491 19.3863L54.4657 18.964L52.9862 19.6636Z" fill="#C0AD9E"/>
<path d="M52.8735 18.189L52.6481 18.0338H51.3472L51.1218 18.189L51.0044 19.2269L51.1123 19.1233H52.8829L53.0004 19.2269L52.8735 18.189Z" fill="#161616"/>
<path d="M57.5891 12.7078L57.9882 10.7917L57.3918 9.01161L52.8735 12.3649L54.6112 13.8353L57.0676 14.5535L57.6125 13.9196L57.3776 13.7506L57.7533 13.4077L57.4622 13.1823L57.8379 12.8957L57.5891 12.7078Z" fill="#763D16"/>
<path d="M46.0118 10.7917L46.4109 12.7078L46.1574 12.8957L46.5331 13.1823L46.2467 13.4077L46.6224 13.7506L46.3875 13.9196L46.9277 14.5535L49.384 13.8347L51.1218 12.3649L46.6035 9.01161L46.0118 10.7917Z" fill="#763D16"/>
<path d="M57.0676 14.5535L54.6112 13.8353L55.3582 14.958L54.245 17.1181L55.7103 17.0993H57.8944L57.0676 14.5535Z" fill="#F6851B"/>
<path d="M49.384 13.8347L46.9277 14.5535L46.1104 17.0993H48.2897L49.7503 17.1181L48.6418 14.9574L49.384 13.8347Z" fill="#F6851B"/>
<path d="M52.7185 15.0754L52.8735 12.3649L53.5876 10.4345L50.4171 10.4346L51.1218 12.3649L51.286 15.0748L51.3425 15.9296L51.3472 18.0338H52.6481L52.6575 15.9296L52.7185 15.0754Z" fill="#F6851B"/>
<path d="M52 37C55.3137 37 58 34.3137 58 31C58 27.6863 55.3137 25 52 25C48.6863 25 46 27.6863 46 31C46 34.3137 48.6863 37 52 37Z" fill="#0052FF"/>
<path d="M52.0504 29.2402C52.7568 29.2402 53.3172 29.6759 53.53 30.3238H54.9531C54.6953 28.9386 53.5524 28 52.0618 28C50.369 28 49.0469 29.285 49.0469 31.0057C49.0469 32.7265 50.3359 34 52.0618 34C53.519 34 54.6846 33.0614 54.9427 31.6647H53.5299C53.3281 32.3127 52.7682 32.7598 52.0613 32.7598C51.0859 32.7598 50.4024 32.0111 50.4024 31.0057C50.4029 29.9889 51.0754 29.2402 52.0504 29.2402Z" fill="white"/>
</svg>
