<svg width="96" height="64" viewBox="0 0 96 64" fill="none" xmlns="http://www.w3.org/2000/svg">
<path d="M1 12.625C1 6.20469 6.20469 1 12.625 1H82.375C88.7953 1 94 6.20469 94 12.625V51.375C94 57.7953 88.7953 63 82.375 63H12.625C6.20469 63 1 57.7953 1 51.375V12.625Z" fill="#271917"/>
<path d="M4.875 12.625C4.875 8.34479 8.34479 4.875 12.625 4.875H82.1655C86.4457 4.875 89.9155 8.34479 89.9155 12.625V51.375C89.9155 55.6552 86.4457 59.125 82.1655 59.125H12.625C8.34479 59.125 4.875 55.6552 4.875 51.375V12.625Z" fill="#F7F0DE"/>
<path d="M15.7629 10.0497C15.9949 9.3357 17.0051 9.3357 17.2371 10.0497L18.501 13.9396C18.6047 14.259 18.9023 14.4751 19.238 14.4751L23.3282 14.4751C24.0789 14.4751 24.3911 15.4359 23.7837 15.8771L20.4747 18.2812C20.2031 18.4786 20.0894 18.8284 20.1932 19.1477L21.4571 23.0376C21.6891 23.7517 20.8719 24.3454 20.2645 23.9041L16.9555 21.5C16.6839 21.3027 16.3161 21.3027 16.0445 21.5L12.7355 23.9041C12.1281 24.3454 11.3109 23.7517 11.5429 23.0376L12.8068 19.1477C12.9106 18.8284 12.7969 18.4786 12.5253 18.2812L9.21631 15.8771C8.60893 15.4359 8.92108 14.4751 9.67184 14.4751L13.762 14.4751C14.0977 14.4751 14.3953 14.259 14.499 13.9396L15.7629 10.0497Z" fill="#FFA103"/>
<rect x="6.8125" y="31.0312" width="19.375" height="19.375" rx="3.875" fill="#32201D"/>
<g clip-path="url(#clip0_2169_2487)">
<path d="M16.314 36.2394C16.6276 36.0074 17.0551 36.0065 17.3687 36.2384C18.1533 36.819 19.6516 37.9272 20.7242 38.7209C21.7648 39.4908 23.2058 40.5575 24.0074 41.1506C24.3842 41.4295 24.5435 41.8945 24.1607 42.1652C23.7865 42.4297 23.0978 42.7339 21.8316 42.964C21.8751 42.7662 21.9075 42.5655 21.9263 42.3625C22.8639 42.1579 23.4272 41.8962 23.4273 41.6105C23.4267 40.9572 20.4805 40.4279 16.8463 40.4279C13.2119 40.4279 10.2648 40.9572 10.2642 41.6105C10.2643 41.8884 10.7978 42.1419 11.69 42.3439C11.7083 42.5489 11.7394 42.7516 11.7828 42.9513C10.5606 42.7228 9.89026 42.4249 9.52303 42.1652C9.1402 41.8945 9.30041 41.4294 9.67732 41.1506L12.9596 38.7209L16.314 36.2394Z" fill="#FFA103"/>
<path d="M16.8457 41.0181C18.2944 41.0181 19.6339 41.1034 20.721 41.2465C21.0816 41.294 21.414 41.5113 21.5101 41.8622C21.5544 42.0239 21.5781 42.187 21.5781 42.3501C21.5781 44.1988 19.3229 46.0474 16.8457 46.0474C14.3686 46.0473 12.1133 44.392 12.1133 42.3501C12.1133 42.2013 12.1296 42.0546 12.1603 41.9104C12.24 41.5368 12.5845 41.2978 12.9633 41.2477C14.0517 41.104 15.3938 41.0181 16.8457 41.0181Z" fill="url(#paint0_linear_2169_2487)"/>
<circle cx="14.7754" cy="42.1282" r="0.591577" fill="#401415"/>
<circle cx="18.9163" cy="42.1282" r="0.591577" fill="#401415"/>
<path d="M15.219 43.8291C15.219 43.8291 15.8741 44.3581 16.8207 44.3577C17.7673 44.3573 18.4228 43.8834 18.4228 43.8834" stroke="#401415" stroke-width="0.739471" stroke-linecap="round"/>
</g>
<path d="M6.8125 55.25C6.8125 54.715 7.24622 54.2812 7.78125 54.2812H25.2188C25.7538 54.2812 26.1875 54.715 26.1875 55.25C26.1875 55.785 25.7538 56.2188 25.2188 56.2188H7.78125C7.24622 56.2188 6.8125 55.785 6.8125 55.25Z" fill="#F0E7D1"/>
<path d="M30.0625 12.1406C30.0625 11.0706 30.9299 10.2031 32 10.2031H87.2188C88.2888 10.2031 89.1562 11.0706 89.1562 12.1406C89.1562 13.2107 88.2888 14.0781 87.2188 14.0781H32C30.9299 14.0781 30.0625 13.2107 30.0625 12.1406Z" fill="#F0E7D1"/>
<path d="M30.0625 19.8906C30.0625 18.2855 31.3637 16.9844 32.9688 16.9844H62.0312C63.6363 16.9844 64.9375 18.2855 64.9375 19.8906C64.9375 21.4957 63.6363 22.7969 62.0312 22.7969H32.9687C31.3637 22.7969 30.0625 21.4957 30.0625 19.8906Z" fill="#AB2B26"/>
<path d="M30.0625 27.6406C30.0625 27.1056 30.4962 26.6719 31.0312 26.6719H63.9688C64.5038 26.6719 64.9375 27.1056 64.9375 27.6406C64.9375 28.1757 64.5038 28.6094 63.9688 28.6094H31.0313C30.4962 28.6094 30.0625 28.1757 30.0625 27.6406Z" fill="#F0E7D1"/>
<path d="M30.0625 34.4219C30.0625 33.3518 30.9299 32.4844 32 32.4844H87.2188C88.2888 32.4844 89.1562 33.3518 89.1562 34.4219C89.1562 35.4919 88.2888 36.3594 87.2188 36.3594H32C30.9299 36.3594 30.0625 35.4919 30.0625 34.4219Z" fill="#FFA103"/>
<path d="M30.0625 41.2031C30.0625 40.6681 30.4962 40.2344 31.0312 40.2344H63.9688C64.5038 40.2344 64.9375 40.6681 64.9375 41.2031C64.9375 41.7382 64.5038 42.1719 63.9688 42.1719H31.0313C30.4962 42.1719 30.0625 41.7382 30.0625 41.2031Z" fill="#F0E7D1"/>
<path d="M30.0625 47.0156C30.0625 46.4806 30.4962 46.0469 31.0312 46.0469H52.3438C52.8788 46.0469 53.3125 46.4806 53.3125 47.0156C53.3125 47.5507 52.8788 47.9844 52.3438 47.9844H31.0313C30.4962 47.9844 30.0625 47.5507 30.0625 47.0156Z" fill="#F0E7D1"/>
<path d="M57.1875 47.0156C57.1875 46.4806 57.6212 46.0469 58.1562 46.0469H79.4688C80.0038 46.0469 80.4375 46.4806 80.4375 47.0156C80.4375 47.5507 80.0038 47.9844 79.4688 47.9844H58.1563C57.6212 47.9844 57.1875 47.5507 57.1875 47.0156Z" fill="#F0E7D1"/>
<path d="M30.0625 52.8281C30.0625 52.2931 30.4962 51.8594 31.0312 51.8594H63.9688C64.5038 51.8594 64.9375 52.2931 64.9375 52.8281C64.9375 53.3632 64.5038 53.7969 63.9688 53.7969H31.0313C30.4962 53.7969 30.0625 53.3632 30.0625 52.8281Z" fill="#F0E7D1"/>
<defs>
<linearGradient id="paint0_linear_2169_2487" x1="13.3334" y1="44.5616" x2="20.4461" y2="39.8605" gradientUnits="userSpaceOnUse">
<stop stop-color="#FFA103"/>
<stop offset="1" stop-color="#F76001"/>
</linearGradient>
<clipPath id="clip0_2169_2487">
<rect width="15.1367" height="15.1367" fill="white" transform="translate(9.24414 33.4629)"/>
</clipPath>
</defs>
</svg>
